<svg xmlns="http://www.w3.org/2000/svg" xmlns:xlink="http://www.w3.org/1999/xlink" width="541" height="401" viewBox="0 0 541 401">
  <defs>
    <clipPath id="clip-path">
      <circle id="Ellipse_43" data-name="Ellipse 43" cx="62.07" cy="62.07" r="62.07" transform="translate(100.84 68.55)" fill="none"/>
    </clipPath>
    <clipPath id="clip-LOGO">
      <rect width="541" height="401"/>
    </clipPath>
  </defs>
  <g id="LOGO" clip-path="url(#clip-LOGO)">
    <rect width="541" height="401" fill="#fff"/>
    <g id="Artboard_1" data-name="Artboard 1" transform="translate(115.381 67.67)">
      <g id="Layer_3" data-name="Layer 3">
        <g id="Group_30" data-name="Group 30" clip-path="url(#clip-path)">
          <path id="Path_258" data-name="Path 258" d="M224.97,87.67l-50.7-19.12h50.7Z" fill="#007ec7"/>
          <path id="Path_259" data-name="Path 259" d="M224.97,88.47,172.15,68.55h2.12l50.7,19.12Z" fill="#007ec7"/>
          <path id="Path_260" data-name="Path 260" d="M224.97,89.27,170.03,68.55h2.12l52.82,19.92Z" fill="#007dc6"/>
          <path id="Path_261" data-name="Path 261" d="M224.97,90.07,167.91,68.55h2.12l54.94,20.72Z" fill="#007dc5"/>
          <path id="Path_262" data-name="Path 262" d="M224.97,90.87,165.79,68.55h2.12l57.06,21.52Z" fill="#017cc4"/>
          <path id="Path_263" data-name="Path 263" d="M224.97,91.67l-61.3-23.12h2.12l59.18,22.32Z" fill="#017cc3"/>
          <path id="Path_264" data-name="Path 264" d="M224.97,92.47,161.55,68.55h2.12l61.3,23.12Z" fill="#017bc2"/>
          <path id="Path_265" data-name="Path 265" d="M224.97,93.27,159.43,68.55h2.12l63.42,23.92Z" fill="#017bc1"/>
          <path id="Path_266" data-name="Path 266" d="M224.97,94.07,157.31,68.55h2.12l65.54,24.72Z" fill="#017ac0"/>
          <path id="Path_267" data-name="Path 267" d="M224.97,94.86,155.19,68.55h2.12l67.66,25.52Z" fill="#0179bf"/>
          <path id="Path_268" data-name="Path 268" d="M224.97,95.67l-71.9-27.12h2.12l69.78,26.31Z" fill="#0279be"/>
          <path id="Path_269" data-name="Path 269" d="M224.97,96.46,150.95,68.55h2.12l71.9,27.12Z" fill="#0278bd"/>
          <path id="Path_270" data-name="Path 270" d="M224.97,97.26,148.83,68.55h2.12l74.02,27.91Z" fill="#0278bc"/>
          <path id="Path_271" data-name="Path 271" d="M224.97,98.06,146.71,68.55h2.12l76.14,28.71Z" fill="#0277bb"/>
          <path id="Path_272" data-name="Path 272" d="M224.97,98.86,144.59,68.55h2.12l78.26,29.51Z" fill="#0277ba"/>
          <path id="Path_273" data-name="Path 273" d="M224.97,99.66l-82.5-31.11h2.12l80.38,30.31Z" fill="#0276b9"/>
          <path id="Path_274" data-name="Path 274" d="M224.97,100.46,140.35,68.55h2.12l82.5,31.11Z" fill="#0375b8"/>
          <path id="Path_275" data-name="Path 275" d="M224.97,101.26,138.23,68.55h2.12l84.62,31.91Z" fill="#0375b7"/>
          <path id="Path_276" data-name="Path 276" d="M224.97,102.06,136.11,68.55h2.12l86.74,32.71Z" fill="#0374b6"/>
          <path id="Path_277" data-name="Path 277" d="M224.97,102.86,133.99,68.55h2.12l88.86,33.51Z" fill="#0374b5"/>
          <path id="Path_278" data-name="Path 278" d="M224.97,103.66l-93.1-35.11h2.12l90.98,34.31Z" fill="#0373b4"/>
          <path id="Path_279" data-name="Path 279" d="M224.97,104.46,129.75,68.55h2.12l93.1,35.11Z" fill="#0373b3"/>
          <path id="Path_280" data-name="Path 280" d="M224.97,105.26,127.63,68.55h2.12l95.22,35.91Z" fill="#0472b2"/>
          <path id="Path_281" data-name="Path 281" d="M224.97,106.06,125.51,68.55h2.12l97.34,36.71Z" fill="#0471b1"/>
          <path id="Path_282" data-name="Path 282" d="M224.97,106.86,123.39,68.55h2.12l99.46,37.51Z" fill="#0471b0"/>
          <path id="Path_283" data-name="Path 283" d="M224.97,107.66,121.27,68.55h2.12l101.58,38.31Z" fill="#0470af"/>
          <path id="Path_284" data-name="Path 284" d="M224.97,108.46,119.15,68.55h2.12l103.7,39.11Z" fill="#0470ae"/>
          <path id="Path_285" data-name="Path 285" d="M224.97,109.25,117.03,68.55h2.12l105.82,39.91Z" fill="#046fad"/>
          <path id="Path_286" data-name="Path 286" d="M224.97,110.05,114.91,68.55h2.12l107.94,40.7Z" fill="#056fac"/>
          <path id="Path_287" data-name="Path 287" d="M224.97,110.85,112.8,68.55h2.11l110.06,41.5Z" fill="#056eab"/>
          <path id="Path_288" data-name="Path 288" d="M224.97,111.65l-114.3-43.1h2.13l112.17,42.3Z" fill="#056daa"/>
          <path id="Path_289" data-name="Path 289" d="M224.97,112.45,109.1,68.75l.08-.2h1.49l114.3,43.1Z" fill="#056da9"/>
          <path id="Path_290" data-name="Path 290" d="M224.97,113.25,108.84,69.45l.26-.7,115.87,43.7Z" fill="#056ca8"/>
          <path id="Path_291" data-name="Path 291" d="M224.97,114.05,108.58,70.15l.26-.7,116.13,43.8Z" fill="#056ca7"/>
          <path id="Path_292" data-name="Path 292" d="M224.97,114.85l-116.66-44,.27-.7,116.39,43.9Z" fill="#066ba6"/>
          <path id="Path_293" data-name="Path 293" d="M224.97,115.65,108.05,71.55l.26-.7,116.66,44Z" fill="#066ba5"/>
          <path id="Path_294" data-name="Path 294" d="M224.97,116.45,107.78,72.25l.27-.7,116.92,44.1Z" fill="#066aa4"/>
          <path id="Path_295" data-name="Path 295" d="M224.97,117.25,107.52,72.95l.26-.7,117.19,44.2Z" fill="#0669a3"/>
          <path id="Path_296" data-name="Path 296" d="M224.97,118.05,107.25,73.65l.27-.7,117.45,44.3Z" fill="#0669a2"/>
          <path id="Path_297" data-name="Path 297" d="M224.97,118.85,106.99,74.35l.26-.7,117.72,44.4Z" fill="#0668a1"/>
          <path id="Path_298" data-name="Path 298" d="M224.97,119.65,106.73,75.05l.26-.7,117.98,44.5Z" fill="#0768a0"/>
          <path id="Path_299" data-name="Path 299" d="M224.97,120.45,106.46,75.75l.27-.7,118.24,44.6Z" fill="#07679f"/>
          <path id="Path_300" data-name="Path 300" d="M224.97,121.25,106.2,76.45l.26-.7,118.51,44.7Z" fill="#07679e"/>
          <path id="Path_301" data-name="Path 301" d="M224.97,122.05,105.94,77.15l.26-.7,118.77,44.8Z" fill="#07669d"/>
          <path id="Path_302" data-name="Path 302" d="M224.97,122.84,105.67,77.85l.27-.7,119.03,44.9Z" fill="#07669c"/>
          <path id="Path_303" data-name="Path 303" d="M224.97,123.64,105.41,78.55l.26-.7,119.3,44.99Z" fill="#07659b"/>
          <path id="Path_304" data-name="Path 304" d="M224.97,124.44,105.14,79.25l.27-.7,119.56,45.09Z" fill="#08649a"/>
          <path id="Path_305" data-name="Path 305" d="M224.97,125.24,104.88,79.95l.26-.7,119.83,45.19Z" fill="#086499"/>
          <path id="Path_306" data-name="Path 306" d="M224.97,126.04,104.61,80.65l.27-.7,120.09,45.29Z" fill="#086398"/>
          <path id="Path_307" data-name="Path 307" d="M224.97,126.84,104.35,81.35l.26-.7,120.36,45.39Z" fill="#086397"/>
          <path id="Path_308" data-name="Path 308" d="M224.97,127.64,104.09,82.05l.26-.7,120.62,45.49Z" fill="#086296"/>
          <path id="Path_309" data-name="Path 309" d="M224.97,128.44,103.82,82.75l.27-.7,120.88,45.59Z" fill="#086295"/>
          <path id="Path_310" data-name="Path 310" d="M224.97,129.24,103.56,83.45l.26-.7,121.15,45.69Z" fill="#096194"/>
          <path id="Path_311" data-name="Path 311" d="M224.97,130.04,103.3,84.15l.26-.7,121.41,45.79Z" fill="#096093"/>
          <path id="Path_312" data-name="Path 312" d="M224.97,130.84,103.03,84.85l.27-.7,121.67,45.89Z" fill="#096092"/>
          <path id="Path_313" data-name="Path 313" d="M224.97,131.64,102.77,85.55l.26-.7,121.94,45.99Z" fill="#095f91"/>
          <path id="Path_314" data-name="Path 314" d="M224.97,132.44,102.5,86.25l.27-.7,122.2,46.09Z" fill="#095f90"/>
          <path id="Path_315" data-name="Path 315" d="M224.97,133.24,102.24,86.95l.26-.7,122.47,46.19Z" fill="#0a5e8f"/>
          <path id="Path_316" data-name="Path 316" d="M224.97,134.04,101.98,87.65l.26-.7,122.73,46.29Z" fill="#0a5e8e"/>
          <path id="Path_317" data-name="Path 317" d="M224.97,134.84,101.71,88.35l.27-.7,122.99,46.39Z" fill="#0a5d8d"/>
          <path id="Path_318" data-name="Path 318" d="M224.97,135.64,101.45,89.05l.26-.7,123.26,46.49Z" fill="#0a5c8c"/>
          <path id="Path_319" data-name="Path 319" d="M224.97,136.44,101.18,89.75l.27-.7,123.52,46.59Z" fill="#0a5c8b"/>
          <path id="Path_320" data-name="Path 320" d="M224.97,137.24,100.92,90.45l.26-.7,123.79,46.69Z" fill="#0a5b8a"/>
          <path id="Path_321" data-name="Path 321" d="M224.97,138.03,100.84,91.22v-.55l.08-.22,124.05,46.79Z" fill="#0b5b89"/>
          <path id="Path_322" data-name="Path 322" d="M224.97,138.83,100.84,92.02v-.8l124.13,46.81Z" fill="#0b5a88"/>
          <path id="Path_323" data-name="Path 323" d="M224.97,139.63,100.84,92.82v-.8l124.13,46.81Z" fill="#0b5a87"/>
          <path id="Path_324" data-name="Path 324" d="M224.97,140.43,100.84,93.62v-.8l124.13,46.81Z" fill="#0b5986"/>
          <path id="Path_325" data-name="Path 325" d="M224.97,141.23,100.84,94.42v-.8l124.13,46.81Z" fill="#0b5885"/>
          <path id="Path_326" data-name="Path 326" d="M224.97,142.03,100.84,95.22v-.8l124.13,46.81Z" fill="#0b5884"/>
          <path id="Path_327" data-name="Path 327" d="M224.97,142.83,100.84,96.02v-.8l124.13,46.81Z" fill="#0c5783"/>
          <path id="Path_328" data-name="Path 328" d="M224.97,143.63,100.84,96.81v-.79l124.13,46.81Z" fill="#0c5782"/>
          <path id="Path_329" data-name="Path 329" d="M224.97,144.43,100.84,97.61v-.8l124.13,46.82Z" fill="#0c5681"/>
          <path id="Path_330" data-name="Path 330" d="M224.97,145.23,100.84,98.41v-.8l124.13,46.82Z" fill="#0c5680"/>
          <path id="Path_331" data-name="Path 331" d="M224.97,146.03,100.84,99.21v-.8l124.13,46.82Z" fill="#0c557f"/>
          <path id="Path_332" data-name="Path 332" d="M224.97,146.83,100.84,100.01v-.8l124.13,46.82Z" fill="#0c547e"/>
          <path id="Path_333" data-name="Path 333" d="M224.97,147.63,100.84,100.81v-.8l124.13,46.82Z" fill="#0d547d"/>
          <path id="Path_334" data-name="Path 334" d="M224.97,148.43,100.84,101.61v-.8l124.13,46.82Z" fill="#0d537c"/>
          <path id="Path_335" data-name="Path 335" d="M224.97,149.23,100.84,102.41v-.8l124.13,46.82Z" fill="#0d537b"/>
          <path id="Path_336" data-name="Path 336" d="M224.97,150.03,100.84,103.21v-.8l124.13,46.82Z" fill="#0d527a"/>
          <path id="Path_337" data-name="Path 337" d="M224.97,150.82,100.84,104.01v-.8l124.13,46.82Z" fill="#0d5279"/>
          <path id="Path_338" data-name="Path 338" d="M224.97,151.63,100.84,104.81v-.8l124.13,46.81Z" fill="#0d5178"/>
          <path id="Path_339" data-name="Path 339" d="M224.97,152.42,100.84,105.61v-.8l124.13,46.82Z" fill="#0e5077"/>
          <path id="Path_340" data-name="Path 340" d="M224.97,153.22,100.84,106.41v-.8l124.13,46.81Z" fill="#0e5076"/>
          <path id="Path_341" data-name="Path 341" d="M224.97,154.02,100.84,107.21v-.8l124.13,46.81Z" fill="#0e4f75"/>
          <path id="Path_342" data-name="Path 342" d="M224.97,154.82,100.84,108.01v-.8l124.13,46.81Z" fill="#0e4f73"/>
          <path id="Path_343" data-name="Path 343" d="M224.97,155.62,100.84,108.81v-.8l124.13,46.81Z" fill="#0e4e72"/>
          <path id="Path_344" data-name="Path 344" d="M224.97,156.42,100.84,109.61v-.8l124.13,46.81Z" fill="#0e4e71"/>
          <path id="Path_345" data-name="Path 345" d="M224.97,157.22,100.84,110.41v-.8l124.13,46.81Z" fill="#0f4d70"/>
          <path id="Path_346" data-name="Path 346" d="M224.97,158.02,100.84,111.2v-.79l124.13,46.81Z" fill="#0f4c6f"/>
          <path id="Path_347" data-name="Path 347" d="M224.97,158.82,100.84,112v-.8l124.13,46.82Z" fill="#0f4c6e"/>
          <path id="Path_348" data-name="Path 348" d="M224.97,159.62,100.84,112.8V112l124.13,46.82Z" fill="#0f4b6d"/>
          <path id="Path_349" data-name="Path 349" d="M224.97,160.42,100.84,113.6v-.8l124.13,46.82Z" fill="#0f4b6c"/>
          <path id="Path_350" data-name="Path 350" d="M224.97,161.22,100.84,114.4v-.8l124.13,46.82Z" fill="#0f4a6b"/>
          <path id="Path_351" data-name="Path 351" d="M224.97,162.02,100.84,115.2v-.8l124.13,46.82Z" fill="#104a6a"/>
          <path id="Path_352" data-name="Path 352" d="M224.97,162.82,100.84,116v-.8l124.13,46.82Z" fill="#104969"/>
          <path id="Path_353" data-name="Path 353" d="M224.97,163.62,100.84,116.8V116l124.13,46.82Z" fill="#104868"/>
          <path id="Path_354" data-name="Path 354" d="M224.97,164.42,100.84,117.6v-.8l124.13,46.82Z" fill="#104867"/>
          <path id="Path_355" data-name="Path 355" d="M224.97,165.22,100.84,118.4v-.8l124.13,46.82Z" fill="#104766"/>
          <path id="Path_356" data-name="Path 356" d="M224.97,166.01,100.84,119.2v-.8l124.13,46.82Z" fill="#104765"/>
          <path id="Path_357" data-name="Path 357" d="M224.97,166.81,100.84,120v-.8l124.13,46.81Z" fill="#114664"/>
          <path id="Path_358" data-name="Path 358" d="M224.97,167.61,100.84,120.8V120l124.13,46.81Z" fill="#114663"/>
          <path id="Path_359" data-name="Path 359" d="M224.97,168.41,100.84,121.6v-.8l124.13,46.81Z" fill="#114562"/>
          <path id="Path_360" data-name="Path 360" d="M224.97,169.21,100.84,122.4v-.8l124.13,46.81Z" fill="#114461"/>
          <path id="Path_361" data-name="Path 361" d="M224.97,170.01,100.84,123.2v-.8l124.13,46.81Z" fill="#114460"/>
          <path id="Path_362" data-name="Path 362" d="M224.97,170.56l-.08.22L100.84,124v-.8l124.13,46.81Z" fill="#11435f"/>
          <path id="Path_363" data-name="Path 363" d="M224.89,170.78l-.26.7L100.84,124.8V124Z" fill="#12435e"/>
          <path id="Path_364" data-name="Path 364" d="M224.63,171.48l-.27.7L100.84,125.59v-.79Z" fill="#12425d"/>
          <path id="Path_365" data-name="Path 365" d="M224.36,172.18l-.26.7L100.84,126.39v-.8Z" fill="#12425c"/>
          <path id="Path_366" data-name="Path 366" d="M224.1,172.88l-.26.7-123-46.39v-.8Z" fill="#12415b"/>
          <path id="Path_367" data-name="Path 367" d="M223.84,173.58l-.27.7L100.84,127.99v-.8Z" fill="#12405a"/>
          <path id="Path_368" data-name="Path 368" d="M223.57,174.28l-.26.7L100.84,128.79v-.8Z" fill="#124059"/>
          <path id="Path_369" data-name="Path 369" d="M223.31,174.98l-.27.7-122.2-46.09v-.8Z" fill="#133f58"/>
          <path id="Path_370" data-name="Path 370" d="M223.04,175.68l-.26.7L100.84,130.39v-.8Z" fill="#133f57"/>
          <path id="Path_371" data-name="Path 371" d="M222.78,176.38l-.27.7L100.84,131.19v-.8Z" fill="#133e56"/>
          <path id="Path_372" data-name="Path 372" d="M222.51,177.08l-.26.7L100.84,131.99v-.8Z" fill="#133e55"/>
          <path id="Path_373" data-name="Path 373" d="M222.25,177.78l-.26.7L100.84,132.79v-.8Z" fill="#133d54"/>
          <path id="Path_374" data-name="Path 374" d="M221.99,178.48l-.27.7L100.84,133.59v-.8Z" fill="#143c53"/>
          <path id="Path_375" data-name="Path 375" d="M221.72,179.18l-.26.7L100.84,134.39v-.8Z" fill="#143c52"/>
          <path id="Path_376" data-name="Path 376" d="M221.46,179.88l-.26.7L100.84,135.19v-.8Z" fill="#143b51"/>
          <path id="Path_377" data-name="Path 377" d="M221.2,180.58l-.27.7L100.84,135.99v-.8Z" fill="#143b50"/>
          <path id="Path_378" data-name="Path 378" d="M220.93,181.28l-.26.7L100.84,136.79v-.8Z" fill="#143a4f"/>
          <path id="Path_379" data-name="Path 379" d="M220.67,181.98l-.27.7L100.84,137.59v-.8Z" fill="#143a4e"/>
          <path id="Path_380" data-name="Path 380" d="M220.4,182.68l-.26.7-119.3-44.99v-.8Z" fill="#15394d"/>
          <path id="Path_381" data-name="Path 381" d="M220.14,183.38l-.26.7L100.84,139.19v-.8Z" fill="#15384c"/>
          <path id="Path_382" data-name="Path 382" d="M219.88,184.08l-.27.7L100.84,139.99v-.8Z" fill="#15384b"/>
          <path id="Path_383" data-name="Path 383" d="M219.61,184.78l-.26.7-118.51-44.7v-.79Z" fill="#15374a"/>
          <path id="Path_384" data-name="Path 384" d="M219.35,185.48l-.27.7-118.24-44.6v-.8Z" fill="#153749"/>
          <path id="Path_385" data-name="Path 385" d="M219.08,186.18l-.26.7-117.98-44.5v-.8Z" fill="#153648"/>
          <path id="Path_386" data-name="Path 386" d="M218.82,186.88l-.26.7-117.72-44.4v-.8Z" fill="#163647"/>
          <path id="Path_387" data-name="Path 387" d="M218.56,187.58l-.27.7-117.45-44.3v-.8Z" fill="#163546"/>
          <path id="Path_388" data-name="Path 388" d="M218.29,188.28l-.26.7-117.19-44.2v-.8Z" fill="#163545"/>
          <path id="Path_389" data-name="Path 389" d="M218.03,188.98l-.27.7-116.92-44.1v-.8Z" fill="#163444"/>
          <path id="Path_390" data-name="Path 390" d="M217.76,189.68l-.26.7-116.66-44v-.8Z" fill="#163343"/>
          <path id="Path_391" data-name="Path 391" d="M217.5,190.38l-.26.7-116.4-43.9v-.8Z" fill="#163342"/>
          <path id="Path_392" data-name="Path 392" d="M217.24,191.08l-.27.7-116.13-43.8v-.8Z" fill="#173241"/>
          <path id="Path_393" data-name="Path 393" d="M216.97,191.78l-.26.7-115.87-43.7v-.8Z" fill="#173240"/>
          <path id="Path_394" data-name="Path 394" d="M216.71,192.48l-.08.2h-1.49l-114.3-43.1v-.8Z" fill="#17313f"/>
          <path id="Path_395" data-name="Path 395" d="M213.02,192.68l-112.18-42.3v-.8l114.3,43.1Z" fill="#17313e"/>
          <path id="Path_396" data-name="Path 396" d="M210.9,192.68l-110.06-41.5v-.8l112.18,42.3Z" fill="#17303d"/>
          <path id="Path_397" data-name="Path 397" d="M208.78,192.68l-107.94-40.7v-.8l110.06,41.5Z" fill="#172f3c"/>
          <path id="Path_398" data-name="Path 398" d="M206.66,192.68l-105.82-39.9v-.8l107.94,40.7Z" fill="#182f3b"/>
          <path id="Path_399" data-name="Path 399" d="M204.54,192.68l-103.7-39.11v-.79l105.82,39.9Z" fill="#182e3a"/>
          <path id="Path_400" data-name="Path 400" d="M202.42,192.68,100.84,154.37v-.8l103.7,39.11Z" fill="#182e39"/>
          <path id="Path_401" data-name="Path 401" d="M200.3,192.68l-99.46-37.51v-.8l101.58,38.31Z" fill="#182d38"/>
          <path id="Path_402" data-name="Path 402" d="M198.18,192.68l-97.34-36.71v-.8l99.46,37.51Z" fill="#182d37"/>
          <path id="Path_403" data-name="Path 403" d="M196.06,192.68l-95.22-35.91v-.8l97.34,36.71Z" fill="#182c36"/>
          <path id="Path_404" data-name="Path 404" d="M193.94,192.68l-93.1-35.11v-.8l95.22,35.91Z" fill="#192b35"/>
          <path id="Path_405" data-name="Path 405" d="M191.82,192.68l-90.98-34.31v-.8l93.1,35.11Z" fill="#192b34"/>
          <path id="Path_406" data-name="Path 406" d="M189.7,192.68l-88.86-33.51v-.8l90.98,34.31Z" fill="#192a33"/>
          <path id="Path_407" data-name="Path 407" d="M187.58,192.68l-86.74-32.71v-.8l88.86,33.51Z" fill="#192a32"/>
          <path id="Path_408" data-name="Path 408" d="M185.46,192.68l-84.62-31.91v-.8l86.74,32.71Z" fill="#192931"/>
          <path id="Path_409" data-name="Path 409" d="M183.34,192.68l-82.5-31.11v-.8l84.62,31.91Z" fill="#192930"/>
          <path id="Path_410" data-name="Path 410" d="M181.22,192.68l-80.38-30.31v-.8l82.5,31.11Z" fill="#1a282f"/>
          <path id="Path_411" data-name="Path 411" d="M179.1,192.68l-78.26-29.51v-.8l80.38,30.31Z" fill="#1a272e"/>
          <path id="Path_412" data-name="Path 412" d="M176.98,192.68l-76.14-28.71v-.8l78.26,29.51Z" fill="#1a272d"/>
          <path id="Path_413" data-name="Path 413" d="M174.86,192.68l-74.02-27.91v-.8l76.14,28.71Z" fill="#1a262c"/>
          <path id="Path_414" data-name="Path 414" d="M172.74,192.68l-71.9-27.11v-.8l74.02,27.91Z" fill="#1a262b"/>
          <path id="Path_415" data-name="Path 415" d="M170.62,192.68l-69.78-26.31v-.8l71.9,27.11Z" fill="#1a252a"/>
          <path id="Path_416" data-name="Path 416" d="M168.5,192.68l-67.66-25.52v-.79l69.78,26.31Z" fill="#1b2529"/>
          <path id="Path_417" data-name="Path 417" d="M166.38,192.68l-65.54-24.71v-.81l67.66,25.52Z" fill="#1b2428"/>
          <path id="Path_418" data-name="Path 418" d="M164.26,192.68l-63.42-23.92v-.79l65.54,24.71Z" fill="#1b2327"/>
          <path id="Path_419" data-name="Path 419" d="M162.14,192.68l-61.3-23.12v-.8l63.42,23.92Z" fill="#1b2326"/>
          <path id="Path_420" data-name="Path 420" d="M160.02,192.68l-59.18-22.32v-.8l61.3,23.12Z" fill="#1b2225"/>
          <path id="Path_421" data-name="Path 421" d="M157.9,192.68l-57.06-21.52v-.8l59.18,22.32Z" fill="#1b2224"/>
          <path id="Path_422" data-name="Path 422" d="M155.78,192.68l-54.94-20.72v-.8l57.06,21.52Z" fill="#1c2123"/>
          <path id="Path_423" data-name="Path 423" d="M153.66,192.68l-52.82-19.92v-.8l54.94,20.72Z" fill="#1c2122"/>
          <path id="Path_424" data-name="Path 424" d="M151.54,192.68l-50.7-19.12v-.8l52.82,19.92Z" fill="#1c2021"/>
          <rect id="Rectangle_110" data-name="Rectangle 110" height="54.19" transform="translate(100.838 173.556) rotate(-69.34)" fill="#1c2021"/>
          <rect id="Rectangle_111" data-name="Rectangle 111" height="54.19" transform="translate(100.838 173.556) rotate(-69.34)" fill="#1c1f20"/>
          <rect id="Rectangle_112" data-name="Rectangle 112" height="54.19" transform="translate(100.838 173.556) rotate(-69.34)" fill="#1c1f1f"/>
          <rect id="Rectangle_113" data-name="Rectangle 113" height="54.19" transform="translate(100.838 173.556) rotate(-69.34)" fill="#1d1e1d"/>
          <rect id="Rectangle_114" data-name="Rectangle 114" height="54.19" transform="translate(100.838 173.556) rotate(-69.34)" fill="#1d1e1c"/>
          <rect id="Rectangle_115" data-name="Rectangle 115" height="54.19" transform="translate(100.838 173.556) rotate(-69.34)" fill="#1d1d1b"/>
          <path id="Path_425" data-name="Path 425" d="M100.84,173.56l50.7,19.12h-50.7Z" fill="#1d1d1b"/>
        </g>
      </g>
      <g id="Layer_1" data-name="Layer 1">
        <g id="Layer_69" data-name="Layer 69">
          <g id="Layer_72" data-name="Layer 72">
            <ellipse id="Ellipse_44" data-name="Ellipse 44" cx="0.67" cy="0.69" rx="0.67" ry="0.69" transform="translate(86.99 57.65)" fill="#fff"/>
            <ellipse id="Ellipse_45" data-name="Ellipse 45" cx="1.94" cy="1.9" rx="1.94" ry="1.9" transform="translate(79.845 72.884) rotate(-35.6)" fill="#fff"/>
            <ellipse id="Ellipse_46" data-name="Ellipse 46" cx="1.87" cy="1.91" rx="1.87" ry="1.91" transform="translate(90.4 88.55)" fill="#fff"/>
            <circle id="Ellipse_47" data-name="Ellipse 47" cx="1.1" cy="1.1" r="1.1" transform="translate(212.82 192.8)" fill="#fff"/>
            <ellipse id="Ellipse_48" data-name="Ellipse 48" cx="93.99" cy="90.46" rx="93.99" ry="90.46" transform="translate(70.02 42.37)" fill="none" stroke="#009fe8" stroke-miterlimit="10" stroke-width="1"/>
            <ellipse id="Ellipse_49" data-name="Ellipse 49" cx="118.65" cy="113.61" rx="118.65" ry="113.61" transform="translate(46.47 19.22)" fill="none" stroke="#ff7faa" stroke-miterlimit="10" stroke-width="1"/>
            <circle id="Ellipse_50" data-name="Ellipse 50" cx="2.45" cy="2.45" r="2.45" transform="translate(185.07 217.99)" fill="#fff"/>
            <ellipse id="Ellipse_51" data-name="Ellipse 51" cx="2.32" cy="2.3" rx="2.32" ry="2.3" transform="translate(106.75 230.91)" fill="#fff"/>
            <ellipse id="Ellipse_52" data-name="Ellipse 52" cx="1.83" cy="1.81" rx="1.83" ry="1.81" transform="translate(156.11 221.48)" fill="#fff"/>
            <ellipse id="Ellipse_53" data-name="Ellipse 53" cx="1.53" cy="1.52" rx="1.53" ry="1.52" transform="translate(125.27 215.72)" fill="#fff"/>
            <circle id="Ellipse_54" data-name="Ellipse 54" cx="2.45" cy="2.45" r="2.45" transform="translate(137.01 43.15)" fill="#fff"/>
            <ellipse id="Ellipse_55" data-name="Ellipse 55" cx="1.35" cy="1.33" rx="1.35" ry="1.33" transform="translate(144.33 138.14)" fill="#fff"/>
            <ellipse id="Ellipse_56" data-name="Ellipse 56" cx="1.35" cy="1.33" rx="1.35" ry="1.33" transform="translate(215.67 57.7)" fill="#fff"/>
            <circle id="Ellipse_57" data-name="Ellipse 57" cx="2.45" cy="2.45" r="2.45" transform="translate(197.23 22.61)" fill="#fff"/>
            <ellipse id="Ellipse_58" data-name="Ellipse 58" cx="1.53" cy="1.52" rx="1.53" ry="1.52" transform="translate(232.4 69.87)" fill="#fff"/>
            <ellipse id="Ellipse_59" data-name="Ellipse 59" cx="1.22" cy="1.35" rx="1.22" ry="1.35" transform="translate(245.06 174.41)" fill="#fff"/>
            <ellipse id="Ellipse_60" data-name="Ellipse 60" cx="2.32" cy="2.3" rx="2.32" ry="2.3" transform="translate(272.69 172.63)" fill="#fff"/>
            <ellipse id="Ellipse_61" data-name="Ellipse 61" cx="1.35" cy="1.33" rx="1.35" ry="1.33" transform="translate(245.9 49.41)" fill="#fff"/>
            <ellipse id="Ellipse_62" data-name="Ellipse 62" cx="1.53" cy="1.52" rx="1.53" ry="1.52" transform="translate(75.01 197.09)" fill="#fff"/>
            <circle id="Ellipse_63" data-name="Ellipse 63" cx="0.76" cy="0.76" r="0.76" transform="translate(64.515 153.605) rotate(-32.83)" fill="#fff"/>
            <circle id="Ellipse_64" data-name="Ellipse 64" cx="0.76" cy="0.76" r="0.76" transform="translate(210.15 74.07)" fill="#fff"/>
            <circle id="Ellipse_65" data-name="Ellipse 65" cx="0.76" cy="0.76" r="0.76" transform="translate(78.514 117.729) rotate(-32.83)" fill="#fff"/>
            <circle id="Ellipse_66" data-name="Ellipse 66" cx="0.76" cy="0.76" r="0.76" transform="translate(93.31 68.41)" fill="#fff"/>
            <circle id="Ellipse_67" data-name="Ellipse 67" cx="1.3" cy="1.3" r="1.3" transform="translate(120.1 26.22)" fill="#fff"/>
            <circle id="Ellipse_68" data-name="Ellipse 68" cx="1.09" cy="1.09" r="1.09" transform="translate(248.73 210.8)" fill="#fff"/>
            <circle id="Ellipse_69" data-name="Ellipse 69" cx="0.55" cy="0.55" r="0.55" transform="translate(246.74 194.46)" fill="#fff"/>
            <circle id="Ellipse_70" data-name="Ellipse 70" cx="0.76" cy="0.76" r="0.76" transform="translate(124.51 197.21)" fill="#fff"/>
            <circle id="Ellipse_71" data-name="Ellipse 71" cx="0.76" cy="0.76" r="0.76" transform="translate(156.858 59.684) rotate(-32.83)" fill="#fff"/>
            <circle id="Ellipse_72" data-name="Ellipse 72" cx="0.76" cy="0.76" r="0.76" transform="translate(163.25 30.08)" fill="#fff"/>
            <path id="Path_426" data-name="Path 426" d="M132.76,175.8l12.32-2.71L161.3,94.58,148.76,96.9Q140.75,136.35,132.76,175.8Z" fill="#fff"/>
            <path id="Path_427" data-name="Path 427" d="M135.33,100.39q-1.29,6.24-2.59,12.51L176.86,102q1.32-6.6,2.62-13.19Z" fill="#fff"/>
            <path id="Path_428" data-name="Path 428" d="M158.83,106.41,162,110.3l18-4.23-3-4Z" fill="#5862b2"/>
            <path id="Path_429" data-name="Path 429" d="M132.76,112.9l4.15,3.84,8.25-2.16q.51-2.52,1-5.06Z" fill="#5862b2"/>
            <path id="Path_430" data-name="Path 430" d="M148.1,177.24l-11.89,2.86-3.45-4.3,12.32-2.72Z" fill="#5862b2"/>
            <path id="Path_431" data-name="Path 431" d="M145,173.14l3.06,4.1Q155,143.76,162,110.3l-3.17-3.89Q151.93,139.8,145,173.14Z" fill="#ff7faa"/>
            <path id="Path_432" data-name="Path 432" d="M177,102l3,4q1.4-6.74,2.8-13.47l-3.19-3.71Z" fill="#ff7faa"/>
            <path id="Path_433" data-name="Path 433" d="M199,157.37l1.66,2.06,1.62,2q3.06-16.6,6.1-33.22l-3.22-3.68Q202,140.94,199,157.37Z" fill="#ff7faa"/>
            <path id="Path_434" data-name="Path 434" d="M202.23,161.48l-13.39,3.21-3.77-4.21L199,157.41Z" fill="#5862b2"/>
            <path id="Path_435" data-name="Path 435" d="M226,155.65l-13.39,3.21-3.77-4.2,13.87-3.08C223.76,152.94,224.85,154.3,226,155.65Z" fill="#5862b2"/>
            <path id="Path_436" data-name="Path 436" d="M216.94,219.06a3.76,3.76,0,0,0,.66-1.21c.1-.25.21-.49.32-.74.17-.42.27-.68.45-.73a.15.15,0,0,1,.18,0c.12.08.11.32.09.71v.75a4.47,4.47,0,0,0,0,1.63c0,.07.09.18.61.47,1,.56,1.73.64,1.73,1a.431.431,0,0,1,0,.16c-.17.3-.71.18-1.87.15-.55,0-.74,0-.92.17s-.15.15-.46.76l-.36.74c-.47,1-.62,1.5-.87,1.54h-.11c-.15-.08-.09-.44,0-1.28s.07-.77.11-1,.07-.62.09-.93a.86.86,0,0,0,0-.32c-.09-.22-.31-.27-.57-.34a8.258,8.258,0,0,1-.77-.31c-1-.34-1.14-.45-1.15-.65a.4.4,0,0,1,.09-.3c.14-.18.37-.15.74-.13h.76C216.34,219.25,216.76,219.25,216.94,219.06Z" fill="#fff"/>
            <path id="Path_437" data-name="Path 437" d="M48.58,105.17a3.58,3.58,0,0,0-.38-1.32l-.29-.75c-.17-.43-.28-.68-.19-.84a.18.18,0,0,1,.15-.11c.14,0,.3.15.56.44.56.63.43.47.5.56.6.73.91,1.1,1.13,1.18a1.48,1.48,0,0,0,.76-.09c1.12-.31,1.69-.76,2-.48a.53.53,0,0,1,.08.15c.09.33-.38.62-1.23,1.41-.4.37-.53.52-.54.77a2.14,2.14,0,0,0,.21.86c.14.46.26.78.26.78.39,1.08.61,1.51.45,1.72a.16.16,0,0,1-.08.06c-.16,0-.38-.25-.9-.92s-.48-.61-.6-.78a8.451,8.451,0,0,0-.58-.73.83.83,0,0,0-.24-.22c-.22-.1-.4,0-.64.15a7.429,7.429,0,0,1-.77.33c-.92.42-1.13.47-1.28.34a.47.47,0,0,1-.14-.28c0-.23.16-.36.43-.61s.36-.37.54-.55C48.28,105.73,48.54,105.47,48.58,105.17Z" fill="#fff"/>
            <path id="Path_438" data-name="Path 438" d="M191.47,57.64a3.61,3.61,0,0,0,.66-1.2c.1-.25.21-.5.32-.74.18-.42.27-.68.45-.74a.19.19,0,0,1,.18,0c.12.09.11.32.09.72v.74a4.52,4.52,0,0,0,0,1.64c0,.06.09.18.61.47,1,.56,1.74.64,1.73,1a.43.43,0,0,1,0,.16c-.16.3-.7.18-1.87.14-.54,0-.74,0-.92.17a2.63,2.63,0,0,0-.46.77l-.36.74c-.47,1-.62,1.5-.87,1.54a.2.2,0,0,1-.11,0c-.14-.08-.09-.44,0-1.29s.07-.77.11-1,.07-.56.1-.93a.86.86,0,0,0,0-.32c-.09-.22-.31-.26-.57-.34s-.51-.21-.77-.3c-1-.34-1.14-.46-1.15-.65a.4.4,0,0,1,.09-.3c.14-.18.37-.15.74-.14h.77a2.21,2.21,0,0,0,1.23-.14Z" fill="#fff"/>
            <path id="Path_439" data-name="Path 439" d="M85.35,157.87q-1.44,8.92-2.89,17.76l-11.7-2.3,3-12.9c1.94-.34,4-.75,6.06-1.21S83.62,158.34,85.35,157.87Z" fill="#fff"/>
            <path id="Path_440" data-name="Path 440" d="M115.28,120.46c-14.75-4.77-18.5-7.46-18.24-9.07.31-2,7-3.69,12-1.72a16.54,16.54,0,0,1,5,3.4,24.76,24.76,0,0,1,3.5,4.33,10.39,10.39,0,0,1,1.67,3,8,8,0,0,1,.16,3.71l-2.82,15L113,135.22Q114.14,127.8,115.28,120.46Z" fill="#ff7faa"/>
            <path id="Path_441" data-name="Path 441" d="M86.51,191.11c-2.18,0-7,0-10.86-3.44a13,13,0,0,1-3.44-5.1,36.57,36.57,0,0,0,21.82-10,35.28,35.28,0,0,0,9.87-18.44c.32-1.84.63-3.68,1-5.52a17.43,17.43,0,0,1,5.67,6c4.92,8.81.2,20.33-5.14,26.74C104.31,182.56,97,191.11,86.51,191.11Z" fill="#5862b2"/>
            <path id="Path_442" data-name="Path 442" d="M41.87,124.45v.07l-4.28.93q-13.23,40-26.45,80l12.56-2.6,3.81-11.72,11-2.28c-.18,3.57-.37,7.14-.55,10.71l12-2.51q2-37.68,4-75.37ZM31.76,178.28q4.38-13.5,8.78-27-.66,12.78-1.31,25.58Z" fill="#fff"/>
            <path id="Path_443" data-name="Path 443" d="M26.76,206.89l-12.1,2.91-3.52-4.26,12.62-2.74Z" fill="#5862b2"/>
            <path id="Path_444" data-name="Path 444" d="M53,201.21,41.55,204,38,199.6l12-2.51Z" fill="#5862b2"/>
            <path id="Path_445" data-name="Path 445" d="M30.4,195.43l-3.64,11.46-3-4.09q1.89-5.82,3.79-11.6Z" fill="#ff7faa"/>
            <path id="Path_446" data-name="Path 446" d="M57.55,125.68Q55.29,163.45,53,201.21l-3-4.12q2-37.71,4.07-75.41Z" fill="#ff7faa"/>
            <path id="Path_447" data-name="Path 447" d="M38.26,193.91l-7.86,1.52-2.89-4.26,11-2.28Z" fill="#5862b2"/>
            <path id="Path_448" data-name="Path 448" d="M39.55,168.27l-2.91,8.93-4.88,1.08,8.77-26.87Z" fill="#ff7faa"/>
            <path id="Path_449" data-name="Path 449" d="M215.76,128.08a9.781,9.781,0,0,0-2.37-.58,10.09,10.09,0,0,0-5.15.79l-3.14-3.75L217,122.7Z" fill="#5862b2"/>
            <path id="Path_450" data-name="Path 450" d="M90.05,149.22c-1.28-.95-1.34-2.83-1.06-10.75a34.509,34.509,0,0,1,.52-5.37c.74-4.23,1.25-7.12,3.37-9.22,3.15-3.14,8.07-2.72,9.44-2.55,1.59.6,3.35,1.45,3.3,2.38-.06,1.38-4.08,1.11-7,3.1-7.7,5.15-3.92,22.41-7.24,22.93a1.88,1.88,0,0,1-1.33-.52Z" fill="#ff7faa"/>
            <path id="Path_451" data-name="Path 451" d="M86,175.33l-3.89.3c.22-1.09.43-2.19.65-3.28q1.32-7.26,2.63-14.48l3.12,4.81Q87.23,169,86,175.33Z" fill="#ff7faa"/>
            <path id="Path_452" data-name="Path 452" d="M112.76,135.22l-11.6,1.65c.29-1.14.94-3.8,1.56-6.68a25.87,25.87,0,0,0,.49-3.39,7.57,7.57,0,0,0,0-1.78,4.62,4.62,0,0,0-2.92-3.28c-3-1-6.75,2.6-8.34,5.46a20.34,20.34,0,0,0-1.79,5.08c-.15.69-.1.63-.45,2.79-.74,4.62-.93,5-.68,5.76.44,1.37,1.66,2.06,4.1,3.42,3.1,1.75,4.26,1.27,7.69,2.52s4.41,2.07,4.77,2.4a10,10,0,0,1,2.74,4.28c.56,1.75.45,3.16.22,6a32.46,32.46,0,0,1-.69,4.8,29.7,29.7,0,0,1-5.09,10.63c-1.14,1.54-10,13.56-21.68,13.13-1.66-.06-5.28-.19-7.85-2.82a10.39,10.39,0,0,1-2.62-5.51c-.82-4,.24-8.35,1.45-8.49.74-.08.89,1.27,2.08,1.63,2.94.89,6.71-6.14,8.45-5.4,1.45.61-.61,5.69,1.57,7.34,1.72,1.3,5.27-.16,7.32-1.92,2.72-2.34,3.28-5.68,3.84-9s.88-4.82.12-6.71c-1.31-3.27-4.71-4.85-7.31-6-4.08-1.88-5.61-1.15-7.86-3.31A10.43,10.43,0,0,1,77.53,143c-.32-1.26-.37-2.49.12-5.75.62-4,.91-6.06,1.84-8.46a29.77,29.77,0,0,1,5.62-9,36.35,36.35,0,0,1,7-6.34c.62-.41,1.24-.82,1.87-1.22a15.5,15.5,0,0,1,6.15-2.76c1.52-.31,5.64-1.15,9.47,1.18,5,3.07,5.55,9.15,5.6,9.83Z" fill="#fff"/>
            <path id="Path_453" data-name="Path 453" d="M116.53,139.11l-12,1.94-3.29-4.14,11.52-1.69Z" fill="#5862b2"/>
            <path id="Path_454" data-name="Path 454" d="M208.87,119.26c.48-4.1.37-6.24-.35-6.44-.52-.14-1.38.8-2.57,2.8q1.67-8.5,3.31-17a11,11,0,0,1,9.31-6.23,10.139,10.139,0,0,1,1.35,0,5.64,5.64,0,0,1,2.48.61c1.1.74,1.31,2.41.66,2.71s-1.11-.64-2.79-1a6.6,6.6,0,0,0-5.51,1.39,3.879,3.879,0,0,0-.39.42c-.59.68-1.18,1.76-2,4.4a40.183,40.183,0,0,0-1.45,5.61Q209.87,112.44,208.87,119.26Z" fill="#ff7faa"/>
            <path id="Path_455" data-name="Path 455" d="M225.89,129.05c-12.68-6.94-15.3-9.9-14.82-11.24.61-1.7,6.54-1.72,10.91-.14a11,11,0,0,1,4.9,3c2.22,2.51,2.61,5.75,2.92,8.36a25.528,25.528,0,0,1,.16,3.71c-.27,7.1-3.5,20.78-4,22.92-1.1-1.35-2.19-2.71-3.29-4.07Z" fill="#ff7faa"/>
            <path id="Path_456" data-name="Path 456" d="M207.22,113.48q-4.14,21.93-8.27,43.89l-13.88,3.28q5.58-27.27,11.2-54.53c-.26,5.13,2.72,9,5.94,9.36C204.64,115.8,206.65,114,207.22,113.48Z" fill="#fff"/>
            <path id="Path_457" data-name="Path 457" d="M233.93,88.6c-14.75-4.77-18.49-7.46-18.24-9.06.31-2,7-3.69,12-1.72a16.51,16.51,0,0,1,5,3.39,24.83,24.83,0,0,1,3.5,4.34,10.42,10.42,0,0,1,1.68,3,8.31,8.31,0,0,1,.15,3.71c-.42,2.6-1.9,11.13-4.09,22.73l-3.38-4.69Q232.23,99.47,233.93,88.6Z" fill="#ff7faa"/>
            <path id="Path_458" data-name="Path 458" d="M230.53,110.33a9.37,9.37,0,0,1-4.42,4.9c-2.88,1.36-5.7.48-8.51-.37a24.56,24.56,0,0,1-9.85-5.89,6.15,6.15,0,0,0,4.62,1.66,9,9,0,0,0,6.49-3.47c.75-1,1.29-2.55,2-5.78.92-4.11.79-5.21.39-6.07a4.44,4.44,0,0,0-1.78-2c-2.65-1.49-6.53.7-8.27,2.73a9,9,0,0,0-1.72,2.87c0,.11-.22.74-.6,2-.09.31-.18.6-.26,1a10,10,0,0,0-.21,1.35c-.16,1.63-.76,5.42-.77,5.42s.53-4.13.56-4.13a4.534,4.534,0,0,1-.07.68c-.14,1.25-.24,1.68-.26,2a4.3,4.3,0,0,0,1.48,3,24.881,24.881,0,0,0,2.47,2.22l.1.08a7.55,7.55,0,0,0,2,.91c1.74.62,3,.6,5.55,1.52a15.59,15.59,0,0,1,4.63,2.27l.15.13a16.4,16.4,0,0,1,2.73,4.28c.58,1.54.46,3,.23,6a40.242,40.242,0,0,1-.68,4.75v.06c-.6,2.32-10.7,3.11-12.24,0-.78-1.55.65-4.1-.18-7.18a2,2,0,0,0-.44-.89c-.86-.94-2.5-.68-4.63-.38-3.09.44-4.64.66-4.88.63-4.23-.5-7.39-7.92-8-13.5a22.06,22.06,0,0,1,.12-5.74c.61-4,.91-6.07,1.84-8.46a29.54,29.54,0,0,1,5.61-9,36.35,36.35,0,0,1,7-6.34l2-1.24a15.5,15.5,0,0,1,6.15-2.76c1.53-.31,5.64-1.14,9.47,1.19,5,3.06,5.56,9.14,5.6,9.82Q232.24,99.48,230.53,110.33Z" fill="#fff"/>
            <path id="Path_459" data-name="Path 459" d="M226.84,131c-1.15,6.06-2.47,12.91-4.18,20.58l-13.9,3.16,5.94-28a2.6,2.6,0,0,0,0-1.41,3.14,3.14,0,0,0-1.37-1.65c-2-1.3-7.06-9.64-5.38-12.07,1.52-2.21,10.92,1.16,16.19,5.57a9.08,9.08,0,0,1,1.32,1.31C228.51,122.2,226.84,131,226.84,131Z" fill="#fff"/>
            <path id="Path_460" data-name="Path 460" d="M226.88,120.66l-4.34-4.86a8,8,0,0,0,7.93-5.66l3.46,4.76a10.52,10.52,0,0,1-7,5.79Z" fill="#5862b2"/>
            <circle id="Ellipse_73" data-name="Ellipse 73" cx="1.1" cy="1.1" r="1.1" transform="translate(166.37 240.05)" fill="#fff"/>
            <line id="Line_47" data-name="Line 47" x2="27.78" y2="6.05" transform="translate(128.33 217.24)" fill="none" stroke="#fff" stroke-miterlimit="10" stroke-width="0.25"/>
            <line id="Line_48" data-name="Line 48" x1="8.8" y2="3.58" transform="translate(84.63 69.6)" fill="none" stroke="#fff" stroke-miterlimit="10" stroke-width="0.25"/>
            <line id="Line_49" data-name="Line 49" x1="5.79" y1="9.85" transform="translate(87.87 58.7)" fill="none" stroke="#fff" stroke-miterlimit="10" stroke-width="0.25"/>
            <line id="Line_50" data-name="Line 50" y1="28.99" x2="33.02" transform="translate(88.33 28.66)" fill="none" stroke="#fff" stroke-miterlimit="10" stroke-width="0.25"/>
            <line id="Line_51" data-name="Line 51" x2="17.99" y2="14.5" transform="translate(192.63 60.05)" fill="none" stroke="#fff" stroke-miterlimit="10" stroke-width="0.25"/>
            <line id="Line_52" data-name="Line 52" y1="2.74" x2="21.54" transform="translate(211.66 71.91)" fill="none" stroke="#fff" stroke-miterlimit="10" stroke-width="0.25"/>
            <line id="Line_53" data-name="Line 53" x1="11.55" y2="18.55" transform="translate(234.9 52.07)" fill="none" stroke="#fff" stroke-miterlimit="10" stroke-width="0.25"/>
            <line id="Line_54" data-name="Line 54" y1="1.64" x2="29.87" transform="translate(158.67 58.28)" fill="none" stroke="#fff" stroke-miterlimit="10" stroke-width="0.25"/>
            <line id="Line_55" data-name="Line 55" x2="17.4" y2="12.48" transform="translate(140.1 46.8)" fill="none" stroke="#fff" stroke-miterlimit="10" stroke-width="0.25"/>
            <line id="Line_56" data-name="Line 56" y1="13.07" x2="15.88" transform="translate(110.92 218.76)" fill="none" stroke="#fff" stroke-miterlimit="10" stroke-width="0.25"/>
            <line id="Line_57" data-name="Line 57" x2="29.94" y2="31.98" transform="translate(77.18 199.98)" fill="none" stroke="#fff" stroke-miterlimit="10" stroke-width="0.25"/>
            <line id="Line_58" data-name="Line 58" y1="13.6" x2="4.71" transform="translate(159.3 209.69)" fill="none" stroke="#fff" stroke-miterlimit="10" stroke-width="0.25"/>
            <line id="Line_59" data-name="Line 59" x1="25.83" y2="1.35" transform="translate(247.5 174.41)" fill="none" stroke="#fff" stroke-miterlimit="10" stroke-width="0.25"/>
            <line id="Line_60" data-name="Line 60" x1="20.05" y2="19.05" transform="translate(167.47 221.48)" fill="none" stroke="#fff" stroke-miterlimit="10" stroke-width="0.25"/>
            <line id="Line_61" data-name="Line 61" x1="35.82" y1="17.99" transform="translate(214 193.9)" fill="none" stroke="#fff" stroke-miterlimit="10" stroke-width="0.25"/>
            <line id="Line_62" data-name="Line 62" x1="3.11" y1="36.47" transform="translate(245.74 174.93)" fill="none" stroke="#fff" stroke-miterlimit="10" stroke-width="0.25"/>
            <circle id="Ellipse_74" data-name="Ellipse 74" cx="1.1" cy="1.1" r="1.1" transform="translate(162.91 209.7)" fill="#fff"/>
            <line id="Line_63" data-name="Line 63" x1="29.32" y1="11.41" transform="translate(49.83 105.92)" fill="none" stroke="#fff" stroke-miterlimit="10" stroke-width="0.25"/>
            <line id="Line_64" data-name="Line 64" x1="11.21" y2="26.35" transform="translate(79.56 91.4)" fill="none" stroke="#fff" stroke-miterlimit="10" stroke-width="0.25"/>
            <line id="Line_65" data-name="Line 65" x2="8.83" y2="16.59" transform="translate(82.78 73.87)" fill="none" stroke="#fff" stroke-miterlimit="10" stroke-width="0.25"/>
            <line id="Line_66" data-name="Line 66" x2="32.26" y2="24.27" transform="translate(125.68 198.62)" fill="none" stroke="#fff" stroke-miterlimit="10" stroke-width="0.25"/>
            <line id="Line_67" data-name="Line 67" x1="23.48" y1="8.54" transform="translate(164.01 211.9)" fill="none" stroke="#fff" stroke-miterlimit="10" stroke-width="0.25"/>
            <path id="Path_461" data-name="Path 461" d="M289.64,123.24A28.85,28.85,0,0,1,280,138.42c-2.65,2.1-8.14,6.47-15.19,5.47a16.59,16.59,0,0,1-8.3-3.84,98.72,98.72,0,0,0,36.25-75.68A14.44,14.44,0,0,1,299,78Z" fill="#5862b2"/>
            <path id="Path_462" data-name="Path 462" d="M294.76,66.32h0c-1.59-3.19-5.05-4.48-6-4.85a15.28,15.28,0,0,0-9.08-.13C268.52,64,262.68,75,261.53,77.12c-.56,1.06-1,2-1.22,2.54Q255.63,103.82,251,128a12.571,12.571,0,0,0,.52,4.56A13.34,13.34,0,0,0,257,139.9c7.41,4.33,22.55-3.62,27.81-15.11a23.373,23.373,0,0,0,1.47-4.29q4.65-22.89,9.29-45.78l.66-3.24a10.57,10.57,0,0,0-1.47-5.16Zm-11.18,23-4.23,20.28a10.552,10.552,0,0,1-.67,1.91c-2.39,5.09-9.28,8.61-12.65,6.69a6,6,0,0,1-2.52-3.25,5.24,5.24,0,0,1-.24-2q2.13-10.71,4.25-21.41c.11-.26.3-.66.55-1.13.51-.93,3.18-5.8,8.26-7a7.09,7.09,0,0,1,4.13.06,4.91,4.91,0,0,1,2.75,2.15h0a4.51,4.51,0,0,1,.66,2.29,9.995,9.995,0,0,1-.25,1.39Z" fill="#fff"/>
            <path id="Path_463" data-name="Path 463" d="M266,117.61a2.9,2.9,0,0,1-1-.3c-1.87-1-1.77-4-1.76-4.13q2.16-10.83,4.3-21.67a14.22,14.22,0,0,1,4.8-6.32,9.87,9.87,0,0,1,5-2.07,7.91,7.91,0,0,1,3.84.62c.36.14,1.09.44,1.05.65s-2-.14-4.06.33A9.25,9.25,0,0,0,273.2,88c-.77.92-1.49,2.08-2.73,6.22a70,70,0,0,0-1.78,7.16Q267.34,108.94,266,117.61Z" fill="#ff7faa"/>
          </g>
        </g>
      </g>
    </g>
  </g>
</svg>
