<svg id="Layer_1" data-name="Layer 1" xmlns="http://www.w3.org/2000/svg" xmlns:xlink="http://www.w3.org/1999/xlink" viewBox="0 0 331.22 289.6"><defs><style>.cls-1{fill:#fff;}.cls-2,.cls-3,.cls-7{fill:none;stroke-miterlimit:10;}.cls-2{stroke:#009fe8;}.cls-3{stroke:#ff7faa;}.cls-4{fill:url(#linear-gradient);}.cls-5{fill:#5862b2;}.cls-6{fill:#ff7faa;}.cls-7{stroke:#fff;stroke-width:0.25px;}</style><linearGradient id="linear-gradient" x1="461.58" y1="3621.99" x2="582.65" y2="3621.99" gradientTransform="matrix(-0.55, 0.83, 0.83, 0.55, -2542.91, -2289.97)" gradientUnits="userSpaceOnUse"><stop offset="0" stop-color="#007ec7"/><stop offset="1" stop-color="#007ec7" stop-opacity="0"/></linearGradient></defs><g id="Layer_69" data-name="Layer 69"><g id="Layer_72" data-name="Layer 72"><ellipse class="cls-1" cx="91.9" cy="70.54" rx="0.67" ry="0.69"/><ellipse class="cls-1" cx="86.77" cy="85.5" rx="1.94" ry="1.9" transform="translate(-33.55 66.5) rotate(-35.6)"/><ellipse class="cls-1" cx="96.51" cy="102.66" rx="1.87" ry="1.91"/><circle class="cls-1" cx="218.16" cy="206.1" r="1.1"/><ellipse class="cls-2" cx="168.25" cy="145.03" rx="93.99" ry="90.46"/><ellipse class="cls-3" cx="169.36" cy="145.03" rx="118.65" ry="113.61"/><circle class="cls-1" cx="191.76" cy="232.64" r="2.45"/><ellipse class="cls-1" cx="113.31" cy="245.41" rx="2.32" ry="2.3"/><ellipse class="cls-1" cx="162.18" cy="235.49" rx="1.83" ry="1.81"/><ellipse class="cls-1" cx="131.04" cy="229.44" rx="1.53" ry="1.52"/><circle class="cls-1" cx="143.7" cy="57.8" r="2.45"/><ellipse class="cls-1" cx="149.92" cy="151.67" rx="1.35" ry="1.33"/><ellipse class="cls-1" cx="221.26" cy="71.23" rx="1.35" ry="1.33"/><circle class="cls-1" cx="203.92" cy="37.26" r="2.45"/><ellipse class="cls-1" cx="238.17" cy="83.59" rx="1.53" ry="1.52"/><ellipse class="cls-1" cx="250.52" cy="187.96" rx="1.22" ry="1.35"/><ellipse class="cls-1" cx="279.25" cy="187.13" rx="2.32" ry="2.3"/><ellipse class="cls-1" cx="251.49" cy="62.94" rx="1.35" ry="1.33"/><ellipse class="cls-1" cx="80.78" cy="210.81" rx="1.53" ry="1.52"/><circle class="cls-1" cx="69.82" cy="166.03" r="0.76" transform="translate(-78.86 64.37) rotate(-32.83)"/><circle class="cls-1" cx="215.15" cy="87.03" r="0.76"/><circle class="cls-1" cx="83.8" cy="130.16" r="0.76" transform="translate(-57.18 66.22) rotate(-32.83)"/><circle class="cls-1" cx="98.32" cy="81.37" r="0.76"/><circle class="cls-1" cx="125.64" cy="39.72" r="1.3"/><circle class="cls-1" cx="254.06" cy="224.09" r="1.09"/><circle class="cls-1" cx="251.53" cy="207.21" r="0.55"/><circle class="cls-1" cx="129.51" cy="210.17" r="0.76"/><circle class="cls-1" cx="162.15" cy="72.11" r="0.76" transform="translate(-13.2 99.43) rotate(-32.83)"/><circle class="cls-1" cx="168.25" cy="43.04" r="0.76"/><circle class="cls-4" cx="169.36" cy="145.77" r="60.54"/><path class="cls-1" d="M137,188l12.32-2.71,16.22-78.51L153,109.1Q145,148.55,137,188Z"/><path class="cls-1" d="M139.57,112.59q-1.29,6.25-2.59,12.51l44.12-10.91q1.32-6.6,2.62-13.19Z"/><path class="cls-5" d="M163.07,118.61l3.17,3.89,18-4.23-3-4Z"/><path class="cls-5" d="M137,125.1l4.15,3.84,8.25-2.16q.51-2.52,1-5.06Z"/><path class="cls-5" d="M152.34,189.44l-11.89,2.86L137,188l12.32-2.72Z"/><path class="cls-6" d="M149.28,185.34l3.06,4.1q6.94-33.48,13.9-66.94l-3.17-3.89Q156.17,152,149.28,185.34Z"/><path class="cls-6" d="M181.27,114.18l3,4q1.39-6.74,2.8-13.47L183.88,101Z"/><path class="cls-6" d="M203.19,169.57l1.66,2.06,1.62,2q3.06-16.6,6.1-33.22l-3.22-3.68Q206.26,153.16,203.19,169.57Z"/><path class="cls-5" d="M206.47,173.68l-13.39,3.21-3.77-4.21,13.88-3.07Z"/><path class="cls-5" d="M230.19,167.85l-13.39,3.21-3.77-4.2,13.87-3.08C228,165.14,229.09,166.5,230.19,167.85Z"/><path class="cls-1" d="M221.18,231.26a3.58,3.58,0,0,0,.66-1.21c.1-.25.21-.49.32-.74.17-.42.27-.68.45-.73a.19.19,0,0,1,.18,0c.12.08.11.32.09.71V230a4.47,4.47,0,0,0,0,1.63c0,.07.09.18.61.47,1,.56,1.73.64,1.73,1a.43.43,0,0,1,0,.16c-.17.3-.71.18-1.87.15-.55,0-.74,0-.92.17s-.15.15-.46.76l-.36.74c-.47,1-.62,1.5-.87,1.54a.11.11,0,0,1-.11,0c-.15-.08-.09-.44,0-1.28s.07-.77.11-1a7.32,7.32,0,0,0,.09-.93.86.86,0,0,0,0-.32c-.09-.22-.31-.27-.57-.34a8.26,8.26,0,0,1-.77-.31c-1-.34-1.14-.45-1.15-.65a.46.46,0,0,1,.09-.3c.14-.18.37-.15.74-.13h.76C220.58,231.45,221,231.45,221.18,231.26Z"/><path class="cls-1" d="M52.82,117.37a3.58,3.58,0,0,0-.38-1.32l-.29-.75c-.17-.43-.28-.68-.19-.84a.19.19,0,0,1,.15-.11c.14,0,.3.15.56.44.56.63.43.47.5.56.6.73.91,1.1,1.13,1.18a1.48,1.48,0,0,0,.76-.09c1.12-.31,1.69-.76,2-.48a.28.28,0,0,1,.08.15c.09.33-.38.62-1.23,1.41-.4.37-.53.52-.54.77a2.53,2.53,0,0,0,.21.86c.14.46.26.78.26.78.39,1.08.61,1.51.45,1.72a.16.16,0,0,1-.08.06c-.16,0-.38-.25-.9-.92s-.48-.61-.6-.78a8.07,8.07,0,0,0-.58-.73.64.64,0,0,0-.24-.22c-.22-.1-.4,0-.64.15a7.43,7.43,0,0,1-.77.33c-.92.42-1.13.47-1.28.34a.44.44,0,0,1-.14-.28c0-.23.16-.36.43-.61s.36-.37.54-.55C52.52,117.93,52.78,117.67,52.82,117.37Z"/><path class="cls-1" d="M195.71,69.84a3.44,3.44,0,0,0,.66-1.2c.1-.25.21-.5.32-.74.18-.42.27-.68.45-.74a.28.28,0,0,1,.18,0c.12.09.11.32.09.72v.74a4.52,4.52,0,0,0,0,1.64c0,.06.09.18.61.47,1,.56,1.74.64,1.73,1a.43.43,0,0,1,0,.16c-.16.3-.7.18-1.87.14-.54,0-.74,0-.92.17a2.86,2.86,0,0,0-.46.77l-.36.74c-.47,1-.62,1.5-.87,1.54a.11.11,0,0,1-.11,0c-.14-.08-.09-.44,0-1.29s.07-.77.11-1,.07-.56.1-.93a.86.86,0,0,0,0-.32c-.09-.22-.31-.26-.57-.34s-.51-.21-.77-.3c-1-.34-1.14-.46-1.15-.65a.46.46,0,0,1,.09-.3c.14-.18.37-.15.74-.14h.77A2.21,2.21,0,0,0,195.71,69.84Z"/><path class="cls-1" d="M89.59,170.07Q88.15,179,86.7,187.83L75,185.53l3-12.9q2.93-.51,6.06-1.21Q87,170.78,89.59,170.07Z"/><path class="cls-6" d="M119.52,132.66c-14.75-4.77-18.5-7.46-18.24-9.07.31-2,7-3.69,12-1.72a16.41,16.41,0,0,1,5,3.4,24.68,24.68,0,0,1,3.5,4.33,10.16,10.16,0,0,1,1.67,3,7.9,7.9,0,0,1,.16,3.71l-2.82,15-3.55-3.89Q118.38,140,119.52,132.66Z"/><path class="cls-5" d="M90.75,203.31c-2.18,0-7,0-10.86-3.44a13.18,13.18,0,0,1-3.44-5.1,36.57,36.57,0,0,0,21.82-10,35.28,35.28,0,0,0,9.87-18.44c.32-1.84.63-3.68,1-5.52a17.42,17.42,0,0,1,5.67,6c4.92,8.81.2,20.33-5.14,26.74C108.55,194.76,101.25,203.31,90.75,203.31Z"/><path class="cls-1" d="M46.11,136.65v.07l-4.28.93q-13.23,40-26.45,80l12.56-2.6,3.81-11.72,11-2.28c-.18,3.57-.37,7.14-.55,10.71l12-2.51q2-37.68,4-75.37ZM36,190.48q4.38-13.5,8.78-27-.66,12.79-1.31,25.58Z"/><path class="cls-5" d="M31,219.09,18.9,222l-3.52-4.26L28,215Z"/><path class="cls-5" d="M57.25,213.41l-11.46,2.76-3.54-4.37,12-2.51Z"/><path class="cls-6" d="M34.64,207.63,31,219.09,28,215q1.89-5.81,3.79-11.6Z"/><path class="cls-6" d="M61.79,137.88q-2.26,37.77-4.54,75.53l-3-4.12q2-37.71,4.07-75.41Z"/><path class="cls-5" d="M42.5,206.11l-7.86,1.52-2.89-4.26,11-2.28Z"/><path class="cls-6" d="M43.79,180.47l-2.91,8.93L36,190.48l8.77-26.87Z"/><path class="cls-5" d="M220,140.28a9.66,9.66,0,0,0-2.37-.58,10.11,10.11,0,0,0-5.15.79l-3.14-3.75,11.91-1.84Z"/><path class="cls-6" d="M94.29,161.42c-1.28-.95-1.34-2.83-1.06-10.75a35.77,35.77,0,0,1,.52-5.37c.74-4.23,1.25-7.12,3.37-9.22,3.15-3.14,8.07-2.72,9.44-2.55,1.59.6,3.35,1.45,3.3,2.38-.06,1.38-4.08,1.11-7,3.1-7.7,5.15-3.92,22.41-7.24,22.93A1.88,1.88,0,0,1,94.29,161.42Z"/><path class="cls-6" d="M90.2,187.53l-3.89.3c.22-1.09.43-2.19.65-3.28q1.32-7.25,2.63-14.48l3.12,4.81Q91.47,181.21,90.2,187.53Z"/><path class="cls-1" d="M117,147.42l-11.6,1.65c.29-1.14.94-3.8,1.56-6.68a24.29,24.29,0,0,0,.49-3.39,6.63,6.63,0,0,0,0-1.78,4.62,4.62,0,0,0-2.92-3.28c-3-1-6.75,2.6-8.34,5.46a20.89,20.89,0,0,0-1.79,5.08c-.15.69-.1.63-.45,2.79-.74,4.62-.93,5-.68,5.76.44,1.37,1.66,2.06,4.1,3.42,3.1,1.75,4.26,1.27,7.69,2.52s4.41,2.07,4.77,2.4a10,10,0,0,1,2.74,4.28c.56,1.75.45,3.16.22,6A27.54,27.54,0,0,1,107,187.08c-1.14,1.54-10,13.56-21.68,13.13-1.66-.06-5.28-.19-7.85-2.82a10.39,10.39,0,0,1-2.62-5.51c-.82-4,.24-8.35,1.45-8.49.74-.08.89,1.27,2.08,1.63,2.94.89,6.71-6.14,8.45-5.4,1.45.61-.61,5.69,1.57,7.34,1.72,1.3,5.27-.16,7.32-1.92,2.72-2.34,3.28-5.68,3.84-9s.88-4.82.12-6.71c-1.31-3.27-4.71-4.85-7.31-6-4.08-1.88-5.61-1.15-7.86-3.31a10.43,10.43,0,0,1-2.75-4.78c-.32-1.26-.37-2.49.12-5.75.62-4,.91-6.06,1.84-8.46a30.16,30.16,0,0,1,5.62-9,36.35,36.35,0,0,1,7-6.34c.62-.41,1.24-.82,1.87-1.22a15.5,15.5,0,0,1,6.15-2.76c1.52-.31,5.64-1.15,9.47,1.18,5,3.07,5.55,9.15,5.6,9.83Z"/><path class="cls-5" d="M120.77,151.31l-12,1.94-3.29-4.14L117,147.42Z"/><path class="cls-6" d="M213.11,131.46c.48-4.1.37-6.24-.35-6.44-.52-.14-1.38.8-2.57,2.8q1.67-8.5,3.31-17a11,11,0,0,1,9.31-6.23,10.14,10.14,0,0,1,1.35,0,5.64,5.64,0,0,1,2.48.61c1.1.74,1.31,2.41.66,2.71s-1.11-.64-2.79-1A6.62,6.62,0,0,0,219,108.3a3.88,3.88,0,0,0-.39.42c-.59.68-1.18,1.76-2,4.4a41.62,41.62,0,0,0-1.45,5.61Q214.11,124.64,213.11,131.46Z"/><path class="cls-6" d="M230.13,141.25c-12.68-6.94-15.3-9.9-14.82-11.24.61-1.7,6.54-1.72,10.91-.14a11,11,0,0,1,4.9,3c2.22,2.51,2.61,5.75,2.92,8.36a24.2,24.2,0,0,1,.16,3.71c-.27,7.1-3.5,20.78-4,22.92-1.1-1.35-2.19-2.71-3.29-4.07Z"/><path class="cls-1" d="M211.46,125.68q-4.14,21.94-8.27,43.89l-13.88,3.28q5.59-27.27,11.2-54.53c-.26,5.13,2.72,9,5.94,9.36C208.88,128,210.89,126.21,211.46,125.68Z"/><path class="cls-6" d="M238.17,100.8c-14.75-4.77-18.49-7.46-18.24-9.06.31-2,7-3.69,12-1.72a16.38,16.38,0,0,1,5,3.39,24.74,24.74,0,0,1,3.5,4.34,10.42,10.42,0,0,1,1.68,3,8,8,0,0,1,.15,3.71c-.42,2.6-1.9,11.13-4.09,22.73l-3.38-4.69Q236.49,111.67,238.17,100.8Z"/><path class="cls-1" d="M234.77,122.53a9.33,9.33,0,0,1-4.42,4.9c-2.88,1.36-5.7.48-8.51-.37a24.51,24.51,0,0,1-9.85-5.89,6,6,0,0,0,2.25,1.35,6.15,6.15,0,0,0,2.37.31,9,9,0,0,0,6.49-3.47c.75-1,1.29-2.55,2-5.78.92-4.11.79-5.21.39-6.07a4.37,4.37,0,0,0-1.78-2c-2.65-1.49-6.53.7-8.27,2.73a9.53,9.53,0,0,0-1.72,2.87c0,.11-.22.74-.6,2-.09.31-.18.6-.26,1a10.51,10.51,0,0,0-.21,1.35c-.16,1.63-.76,5.42-.77,5.42s.53-4.13.56-4.13a4.53,4.53,0,0,1-.07.68c-.14,1.25-.24,1.68-.26,2a4.3,4.3,0,0,0,1.48,3,23.58,23.58,0,0,0,2.47,2.22l.1.08a7.38,7.38,0,0,0,2,.91c1.74.62,3,.6,5.55,1.52a15.71,15.71,0,0,1,4.63,2.27l.15.13a16.15,16.15,0,0,1,2.73,4.28c.58,1.54.46,3,.23,6a36.22,36.22,0,0,1-.68,4.75v.06c-.6,2.32-10.7,3.11-12.24,0-.78-1.55.65-4.1-.18-7.18a2,2,0,0,0-.44-.89c-.86-.94-2.5-.68-4.63-.38-3.09.44-4.64.66-4.88.63-4.23-.5-7.39-7.92-8-13.5a22.06,22.06,0,0,1,.12-5.74c.61-4,.91-6.07,1.84-8.46a29.93,29.93,0,0,1,5.61-9,36.35,36.35,0,0,1,7-6.34l2-1.24a15.5,15.5,0,0,1,6.15-2.76c1.53-.31,5.64-1.14,9.47,1.19,5,3.06,5.56,9.14,5.6,9.82Q236.48,111.68,234.77,122.53Z"/><path class="cls-1" d="M231.08,143.2c-1.15,6.06-2.47,12.91-4.18,20.58L213,166.94l5.94-28a2.42,2.42,0,0,0,0-1.41,3.1,3.1,0,0,0-1.37-1.65c-2-1.3-7.06-9.64-5.38-12.07,1.52-2.21,10.92,1.16,16.19,5.57a8.61,8.61,0,0,1,1.32,1.31C232.75,134.4,231.08,143.2,231.08,143.2Z"/><path class="cls-5" d="M231.12,132.86,226.78,128a8,8,0,0,0,7.93-5.66l3.46,4.76a10.52,10.52,0,0,1-7,5.79Z"/><circle class="cls-1" cx="171.71" cy="253.35" r="1.1"/><line class="cls-7" x1="132.57" y1="229.44" x2="160.35" y2="235.49"/><line class="cls-7" x1="97.67" y1="81.8" x2="88.87" y2="85.38"/><line class="cls-7" x1="97.9" y1="80.75" x2="92.11" y2="70.9"/><line class="cls-7" x1="92.57" y1="69.85" x2="125.59" y2="40.86"/><line class="cls-7" x1="196.87" y1="72.25" x2="214.86" y2="86.75"/><line class="cls-7" x1="215.9" y1="86.85" x2="237.44" y2="84.11"/><line class="cls-7" x1="250.69" y1="64.27" x2="239.14" y2="82.82"/><line class="cls-7" x1="162.91" y1="72.12" x2="192.78" y2="70.48"/><line class="cls-7" x1="144.34" y1="59" x2="161.74" y2="71.48"/><line class="cls-7" x1="115.16" y1="244.03" x2="131.04" y2="230.96"/><line class="cls-7" x1="81.42" y1="212.18" x2="111.36" y2="244.16"/><line class="cls-7" x1="163.54" y1="235.49" x2="168.25" y2="221.89"/><line class="cls-7" x1="277.57" y1="186.61" x2="251.74" y2="187.96"/><line class="cls-7" x1="191.76" y1="233.68" x2="171.71" y2="252.73"/><line class="cls-7" x1="254.06" y1="224.09" x2="218.24" y2="206.1"/><line class="cls-7" x1="253.09" y1="223.6" x2="249.98" y2="187.13"/><circle class="cls-1" cx="168.25" cy="223" r="1.1"/><line class="cls-7" x1="83.39" y1="129.53" x2="54.07" y2="118.12"/><line class="cls-7" x1="95.01" y1="103.6" x2="83.8" y2="129.95"/><line class="cls-7" x1="87.02" y1="86.07" x2="95.85" y2="102.66"/><line class="cls-7" x1="129.92" y1="210.82" x2="162.18" y2="235.09"/><line class="cls-7" x1="191.73" y1="232.64" x2="168.25" y2="224.1"/><path class="cls-5" d="M293.88,135.44a28.79,28.79,0,0,1-9.64,15.18c-2.65,2.1-8.14,6.47-15.19,5.47a16.63,16.63,0,0,1-8.3-3.84A98.69,98.69,0,0,0,297,76.57a14.91,14.91,0,0,1,4.69,5.26,14.62,14.62,0,0,1,1.55,8.32Q298.58,112.79,293.88,135.44Z"/><path class="cls-1" d="M299,78.52h0c-1.59-3.19-5.05-4.48-6-4.85a15.28,15.28,0,0,0-9.08-.13c-11.16,2.69-17,13.68-18.15,15.78-.56,1.06-1,2-1.22,2.54q-4.67,24.17-9.34,48.33a13,13,0,0,0,.52,4.56,13.36,13.36,0,0,0,5.55,7.35c7.41,4.33,22.55-3.62,27.81-15.11a22.4,22.4,0,0,0,1.47-4.29q4.65-22.89,9.29-45.78l.66-3.24A10.57,10.57,0,0,0,299,78.52Zm-11.18,23-4.23,20.28a9.84,9.84,0,0,1-.67,1.91c-2.39,5.09-9.28,8.61-12.65,6.69a6,6,0,0,1-2.52-3.25,5.64,5.64,0,0,1-.24-2q2.13-10.71,4.25-21.41c.11-.26.3-.66.55-1.13.51-.93,3.18-5.8,8.26-7a7.26,7.26,0,0,1,4.13.06,4.87,4.87,0,0,1,2.75,2.15h0a4.51,4.51,0,0,1,.66,2.29,10,10,0,0,1-.25,1.39Z"/><path class="cls-6" d="M270.19,129.81a2.9,2.9,0,0,1-1-.3c-1.87-1-1.77-4-1.76-4.13q2.16-10.83,4.3-21.67a14.22,14.22,0,0,1,4.8-6.32,9.87,9.87,0,0,1,5-2.07,8,8,0,0,1,3.84.62c.36.14,1.09.44,1.05.65s-2-.14-4.06.33a9.31,9.31,0,0,0-4.92,3.32c-.77.92-1.49,2.08-2.73,6.22a70,70,0,0,0-1.78,7.16Q271.58,121.14,270.19,129.81Z"/></g></g></svg>