<svg id="Layer_1" data-name="Layer 1" xmlns="http://www.w3.org/2000/svg" xmlns:xlink="http://www.w3.org/1999/xlink" viewBox="0 0 551 511"><defs><style>.cls-1{fill:#1367a2;}.cls-2{fill:#fff;}</style></defs><path class="cls-1" d="M311.78,541.33c-72.71,0-141-26.24-192.43-73.9S39.78,356.59,39.78,289.33,68,158.82,119.35,111.23s119.72-73.9,192.43-73.9,141,26.25,192.43,73.9,79.57,110.84,79.57,178.1-28.26,130.52-79.57,178.1S384.48,541.33,311.78,541.33Z" transform="translate(-36.28 -33.83)"/><path class="cls-2" d="M311.78,40.83a285.49,285.49,0,0,1,104.68,19.6,269.75,269.75,0,0,1,85.37,53.37,247.51,247.51,0,0,1,57.43,79,232.23,232.23,0,0,1,0,193.09,247.62,247.62,0,0,1-57.43,79,269.93,269.93,0,0,1-85.37,53.37,289.48,289.48,0,0,1-209.36,0,269.93,269.93,0,0,1-85.37-53.37,247.62,247.62,0,0,1-57.43-79,232.23,232.23,0,0,1,0-193.09,247.51,247.51,0,0,1,57.43-79A269.75,269.75,0,0,1,207.1,60.43a285.42,285.42,0,0,1,104.68-19.6m0-7c-152.16,0-275.5,114.39-275.5,255.5s123.34,255.5,275.5,255.5,275.5-114.39,275.5-255.5S463.93,33.83,311.78,33.83Z" transform="translate(-36.28 -33.83)"/><image width="1840" height="1170" transform="translate(83.72 57.17) scale(0.15 0.17)" xlink:href="../../../../Sjernetegn/Pisces/fisk.png"/><image width="1840" height="1170" transform="matrix(0.11, -0.1, 0.12, 0.12, 159.72, 355.83)" xlink:href="../../../../Sjernetegn/Pisces/fisk-kopi.png"/><path class="cls-2" d="M102.42,209.84c-18.62,13.71-20.25,32.7-15.57,53.8,4.07,19.79,13.22,37.92,22.75,55.57,5.45,10.43,14.3,24.89,20.37,35.13l-.54.44a154.19,154.19,0,0,1-23.1-27.72c-8.74-12.91-14.74-27.51-19.25-42.37-3.81-13.3-6.83-27.1-5.91-41A42.94,42.94,0,0,1,93.89,215.6a47.35,47.35,0,0,1,8.14-6.34l.39.58Z" transform="translate(-36.28 -33.83)"/><path class="cls-2" d="M447.68,106.92c-3.18-19.16-18.41-24.47-35.51-27.25-7-1.16-17.19-.8-24.36-.91-8.33-.07-16.54.32-25,.25l-.15-.69A65.54,65.54,0,0,1,374.79,74a71.11,71.11,0,0,1,25.65-2.06,122.43,122.43,0,0,1,12.78,2.25c8.45,2,16.84,4.79,23.88,10.06s11,14,11.28,22.63l-.7.07Z" transform="translate(-36.28 -33.83)"/><path class="cls-2" d="M514.37,384.93c18.7-5.27,22.31-21,23.21-38.28.37-7.11-1.09-17.18-1.77-24.32-.84-8.29-2.14-16.41-3-24.8l.66-.22a65.09,65.09,0,0,1,5.65,11.56A71.14,71.14,0,0,1,544,334.13a124.2,124.2,0,0,1-.84,12.95c-1,8.62-2.91,17.27-7.38,24.84s-12.73,12.51-21.26,13.69l-.15-.68Z" transform="translate(-36.28 -33.83)"/><path class="cls-2" d="M196.37,447.71c1.08,9.41,10.1,14.52,18.22,17.52a159.48,159.48,0,0,0,26.28,7c8.94,1.65,18,2.13,27,3.52s18.15,2.6,27.23,4.59v.7a94,94,0,0,1-13.93,1.71c-14.06,1-28-1.3-41.52-5.06a143.27,143.27,0,0,1-26.46-9.22c-8.18-3.92-17.6-10.6-17.53-20.7l.7,0Z" transform="translate(-36.28 -33.83)"/></svg>