<svg id="Layer_1" data-name="Layer 1" xmlns="http://www.w3.org/2000/svg" xmlns:xlink="http://www.w3.org/1999/xlink" viewBox="0 0 393 345"><defs><style>.cls-1,.cls-176,.cls-177,.cls-180{fill:none;}.cls-2{stroke:#000;}.cls-176,.cls-177,.cls-180,.cls-2{stroke-miterlimit:10;}.cls-3{clip-path:url(#clip-path);}.cls-4{fill:#007ec7;}.cls-5{fill:#007dc6;}.cls-6{fill:#007dc5;}.cls-7{fill:#017cc4;}.cls-8{fill:#017cc3;}.cls-9{fill:#017bc2;}.cls-10{fill:#017bc1;}.cls-11{fill:#017ac0;}.cls-12{fill:#0179bf;}.cls-13{fill:#0279be;}.cls-14{fill:#0278bd;}.cls-15{fill:#0278bc;}.cls-16{fill:#0277bb;}.cls-17{fill:#0277ba;}.cls-18{fill:#0276b9;}.cls-19{fill:#0375b8;}.cls-20{fill:#0375b7;}.cls-21{fill:#0374b6;}.cls-22{fill:#0374b5;}.cls-23{fill:#0373b4;}.cls-24{fill:#0373b3;}.cls-25{fill:#0472b2;}.cls-26{fill:#0471b1;}.cls-27{fill:#0471b0;}.cls-28{fill:#0470af;}.cls-29{fill:#0470ae;}.cls-30{fill:#046fad;}.cls-31{fill:#056fac;}.cls-32{fill:#056eab;}.cls-33{fill:#056daa;}.cls-34{fill:#056da9;}.cls-35{fill:#056ca8;}.cls-36{fill:#056ca7;}.cls-37{fill:#066ba6;}.cls-38{fill:#066ba5;}.cls-39{fill:#066aa4;}.cls-40{fill:#0669a3;}.cls-41{fill:#0669a2;}.cls-42{fill:#0668a1;}.cls-43{fill:#0768a0;}.cls-44{fill:#07679f;}.cls-45{fill:#07679e;}.cls-46{fill:#07669d;}.cls-47{fill:#07669c;}.cls-48{fill:#07659b;}.cls-49{fill:#08649a;}.cls-50{fill:#086499;}.cls-51{fill:#086398;}.cls-52{fill:#086397;}.cls-53{fill:#086296;}.cls-54{fill:#086295;}.cls-55{fill:#096194;}.cls-56{fill:#096093;}.cls-57{fill:#096092;}.cls-58{fill:#095f91;}.cls-59{fill:#095f90;}.cls-60{fill:#0a5e8f;}.cls-61{fill:#0a5e8e;}.cls-62{fill:#0a5d8d;}.cls-63{fill:#0a5c8c;}.cls-64{fill:#0a5c8b;}.cls-65{fill:#0a5b8a;}.cls-66{fill:#0b5b89;}.cls-67{fill:#0b5a88;}.cls-68{fill:#0b5a87;}.cls-69{fill:#0b5986;}.cls-70{fill:#0b5885;}.cls-71{fill:#0b5884;}.cls-72{fill:#0c5783;}.cls-73{fill:#0c5782;}.cls-74{fill:#0c5681;}.cls-75{fill:#0c5680;}.cls-76{fill:#0c557f;}.cls-77{fill:#0c547e;}.cls-78{fill:#0d547d;}.cls-79{fill:#0d537c;}.cls-80{fill:#0d537b;}.cls-81{fill:#0d527a;}.cls-82{fill:#0d5279;}.cls-83{fill:#0d5178;}.cls-84{fill:#0e5077;}.cls-85{fill:#0e5076;}.cls-86{fill:#0e4f75;}.cls-87{fill:#0e4f73;}.cls-88{fill:#0e4e72;}.cls-89{fill:#0e4e71;}.cls-90{fill:#0f4d70;}.cls-91{fill:#0f4c6f;}.cls-92{fill:#0f4c6e;}.cls-93{fill:#0f4b6d;}.cls-94{fill:#0f4b6c;}.cls-95{fill:#0f4a6b;}.cls-96{fill:#104a6a;}.cls-97{fill:#104969;}.cls-98{fill:#104868;}.cls-99{fill:#104867;}.cls-100{fill:#104766;}.cls-101{fill:#104765;}.cls-102{fill:#114664;}.cls-103{fill:#114663;}.cls-104{fill:#114562;}.cls-105{fill:#114461;}.cls-106{fill:#114460;}.cls-107{fill:#11435f;}.cls-108{fill:#12435e;}.cls-109{fill:#12425d;}.cls-110{fill:#12425c;}.cls-111{fill:#12415b;}.cls-112{fill:#12405a;}.cls-113{fill:#124059;}.cls-114{fill:#133f58;}.cls-115{fill:#133f57;}.cls-116{fill:#133e56;}.cls-117{fill:#133e55;}.cls-118{fill:#133d54;}.cls-119{fill:#143c53;}.cls-120{fill:#143c52;}.cls-121{fill:#143b51;}.cls-122{fill:#143b50;}.cls-123{fill:#143a4f;}.cls-124{fill:#143a4e;}.cls-125{fill:#15394d;}.cls-126{fill:#15384c;}.cls-127{fill:#15384b;}.cls-128{fill:#15374a;}.cls-129{fill:#153749;}.cls-130{fill:#153648;}.cls-131{fill:#163647;}.cls-132{fill:#163546;}.cls-133{fill:#163545;}.cls-134{fill:#163444;}.cls-135{fill:#163343;}.cls-136{fill:#163342;}.cls-137{fill:#173241;}.cls-138{fill:#173240;}.cls-139{fill:#17313f;}.cls-140{fill:#17313e;}.cls-141{fill:#17303d;}.cls-142{fill:#172f3c;}.cls-143{fill:#182f3b;}.cls-144{fill:#182e3a;}.cls-145{fill:#182e39;}.cls-146{fill:#182d38;}.cls-147{fill:#182d37;}.cls-148{fill:#182c36;}.cls-149{fill:#192b35;}.cls-150{fill:#192b34;}.cls-151{fill:#192a33;}.cls-152{fill:#192a32;}.cls-153{fill:#192931;}.cls-154{fill:#192930;}.cls-155{fill:#1a282f;}.cls-156{fill:#1a272e;}.cls-157{fill:#1a272d;}.cls-158{fill:#1a262c;}.cls-159{fill:#1a262b;}.cls-160{fill:#1a252a;}.cls-161{fill:#1b2529;}.cls-162{fill:#1b2428;}.cls-163{fill:#1b2327;}.cls-164{fill:#1b2326;}.cls-165{fill:#1b2225;}.cls-166{fill:#1b2224;}.cls-167{fill:#1c2123;}.cls-168{fill:#1c2122;}.cls-169{fill:#1c2021;}.cls-170{fill:#1c1f20;}.cls-171{fill:#1c1f1f;}.cls-172{fill:#1d1e1d;}.cls-173{fill:#1d1e1c;}.cls-174{fill:#1d1d1b;}.cls-175{fill:#fff;}.cls-176{stroke:#009fe8;}.cls-177{stroke:#ff7faa;}.cls-178{fill:#5862b2;}.cls-179{fill:#ff7faa;}.cls-180{stroke:#fff;stroke-width:0.25px;}</style><clipPath id="clip-path" transform="translate(0)"><circle class="cls-1" cx="208.3" cy="155.12" r="62.07"/></clipPath></defs><rect class="cls-2" x="0.5" y="0.5" width="392" height="344"/><g id="Artboard_1" data-name="Artboard 1"><g id="Layer_3" data-name="Layer 3"><g class="cls-3"><g id="Group_30" data-name="Group 30"><path id="Path_258" data-name="Path 258" class="cls-4" d="M270.36,112.17l-50.7-19.12h50.7Z" transform="translate(0)"/><path id="Path_259" data-name="Path 259" class="cls-4" d="M270.36,113,217.54,93.05h2.12l50.7,19.12Z" transform="translate(0)"/><path id="Path_260" data-name="Path 260" class="cls-5" d="M270.36,113.77,215.42,93.05h2.12L270.36,113Z" transform="translate(0)"/><path id="Path_261" data-name="Path 261" class="cls-6" d="M270.36,114.57,213.3,93.05h2.12l54.94,20.72Z" transform="translate(0)"/><path id="Path_262" data-name="Path 262" class="cls-7" d="M270.36,115.37,211.18,93.05h2.12l57.06,21.52Z" transform="translate(0)"/><path id="Path_263" data-name="Path 263" class="cls-8" d="M270.36,116.17l-61.3-23.12h2.12l59.18,22.32Z" transform="translate(0)"/><path id="Path_264" data-name="Path 264" class="cls-9" d="M270.36,117,206.94,93.05h2.12l61.3,23.12Z" transform="translate(0)"/><path id="Path_265" data-name="Path 265" class="cls-10" d="M270.36,117.77,204.82,93.05h2.12L270.36,117Z" transform="translate(0)"/><path id="Path_266" data-name="Path 266" class="cls-11" d="M270.36,118.57,202.7,93.05h2.12l65.54,24.72Z" transform="translate(0)"/><path id="Path_267" data-name="Path 267" class="cls-12" d="M270.36,119.36,200.58,93.05h2.12l67.66,25.52Z" transform="translate(0)"/><path id="Path_268" data-name="Path 268" class="cls-13" d="M270.36,120.17l-71.9-27.12h2.12l69.78,26.31Z" transform="translate(0)"/><path id="Path_269" data-name="Path 269" class="cls-14" d="M270.36,121l-74-27.91h2.12l71.9,27.12Z" transform="translate(0)"/><path id="Path_270" data-name="Path 270" class="cls-15" d="M270.36,121.76,194.22,93.05h2.12l74,27.91Z" transform="translate(0)"/><path id="Path_271" data-name="Path 271" class="cls-16" d="M270.36,122.56,192.1,93.05h2.12l76.14,28.71Z" transform="translate(0)"/><path id="Path_272" data-name="Path 272" class="cls-17" d="M270.36,123.36,190,93.05h2.12l78.26,29.51Z" transform="translate(0)"/><path id="Path_273" data-name="Path 273" class="cls-18" d="M270.36,124.16l-82.5-31.11H190l80.38,30.31Z" transform="translate(0)"/><path id="Path_274" data-name="Path 274" class="cls-19" d="M270.36,125,185.74,93.05h2.12l82.5,31.11Z" transform="translate(0)"/><path id="Path_275" data-name="Path 275" class="cls-20" d="M270.36,125.76,183.62,93.05h2.12L270.36,125Z" transform="translate(0)"/><path id="Path_276" data-name="Path 276" class="cls-21" d="M270.36,126.56,181.5,93.05h2.12l86.74,32.71Z" transform="translate(0)"/><path id="Path_277" data-name="Path 277" class="cls-22" d="M270.36,127.36l-91-34.31h2.12l88.86,33.51Z" transform="translate(0)"/><path id="Path_278" data-name="Path 278" class="cls-23" d="M270.36,128.16l-93.1-35.11h2.12l91,34.31Z" transform="translate(0)"/><path id="Path_279" data-name="Path 279" class="cls-24" d="M270.36,129,175.14,93.05h2.12l93.1,35.11Z" transform="translate(0)"/><path id="Path_280" data-name="Path 280" class="cls-25" d="M270.36,129.76,173,93.05h2.12L270.36,129Z" transform="translate(0)"/><path id="Path_281" data-name="Path 281" class="cls-26" d="M270.36,130.56,170.9,93.05H173l97.34,36.71Z" transform="translate(0)"/><path id="Path_282" data-name="Path 282" class="cls-27" d="M270.36,131.36,168.78,93.05h2.12l99.46,37.51Z" transform="translate(0)"/><path id="Path_283" data-name="Path 283" class="cls-28" d="M270.36,132.16,166.66,93.05h2.12l101.58,38.31Z" transform="translate(0)"/><path id="Path_284" data-name="Path 284" class="cls-29" d="M270.36,133,164.54,93.05h2.12l103.7,39.11Z" transform="translate(0)"/><path id="Path_285" data-name="Path 285" class="cls-30" d="M270.36,133.75,162.42,93.05h2.12L270.36,133Z" transform="translate(0)"/><path id="Path_286" data-name="Path 286" class="cls-31" d="M270.36,134.55,160.3,93.05h2.12l107.94,40.7Z" transform="translate(0)"/><path id="Path_287" data-name="Path 287" class="cls-32" d="M270.36,135.35,158.19,93.05h2.11l110.06,41.5Z" transform="translate(0)"/><path id="Path_288" data-name="Path 288" class="cls-33" d="M270.36,136.15l-114.3-43.1h2.13l112.17,42.3Z" transform="translate(0)"/><path id="Path_289" data-name="Path 289" class="cls-34" d="M270.36,137,154.49,93.25l.08-.2h1.49l114.3,43.1Z" transform="translate(0)"/><path id="Path_290" data-name="Path 290" class="cls-35" d="M270.36,137.75,154.23,94l.26-.7L270.36,137Z" transform="translate(0)"/><path id="Path_291" data-name="Path 291" class="cls-36" d="M270.36,138.55,154,94.65l.26-.7,116.13,43.8Z" transform="translate(0)"/><path id="Path_292" data-name="Path 292" class="cls-37" d="M270.36,139.35l-116.66-44,.27-.7,116.39,43.9Z" transform="translate(0)"/><path id="Path_293" data-name="Path 293" class="cls-38" d="M270.36,140.15,153.44,96.05l.26-.7,116.66,44Z" transform="translate(0)"/><path id="Path_294" data-name="Path 294" class="cls-39" d="M270.36,141,153.17,96.75l.27-.7,116.92,44.1Z" transform="translate(0)"/><path id="Path_295" data-name="Path 295" class="cls-40" d="M270.36,141.75,152.91,97.45l.26-.7L270.36,141Z" transform="translate(0)"/><path id="Path_296" data-name="Path 296" class="cls-41" d="M270.36,142.55,152.64,98.15l.27-.7,117.45,44.3Z" transform="translate(0)"/><path id="Path_297" data-name="Path 297" class="cls-42" d="M270.36,143.35l-118-44.5.26-.7,117.72,44.4Z" transform="translate(0)"/><path id="Path_298" data-name="Path 298" class="cls-43" d="M270.36,144.15,152.12,99.55l.26-.7,118,44.5Z" transform="translate(0)"/><path id="Path_299" data-name="Path 299" class="cls-44" d="M270.36,145l-118.51-44.7.27-.7,118.24,44.6Z" transform="translate(0)"/><path id="Path_300" data-name="Path 300" class="cls-45" d="M270.36,145.75,151.59,101l.26-.7L270.36,145Z" transform="translate(0)"/><path id="Path_301" data-name="Path 301" class="cls-46" d="M270.36,146.55l-119-44.9.26-.7,118.77,44.8Z" transform="translate(0)"/><path id="Path_302" data-name="Path 302" class="cls-47" d="M270.36,147.34l-119.3-45,.27-.7,119,44.9Z" transform="translate(0)"/><path id="Path_303" data-name="Path 303" class="cls-48" d="M270.36,148.14,150.8,103.05l.26-.7,119.3,45Z" transform="translate(0)"/><path id="Path_304" data-name="Path 304" class="cls-49" d="M270.36,148.94,150.53,103.75l.27-.7,119.56,45.09Z" transform="translate(0)"/><path id="Path_305" data-name="Path 305" class="cls-50" d="M270.36,149.74,150.27,104.45l.26-.7,119.83,45.19Z" transform="translate(0)"/><path id="Path_306" data-name="Path 306" class="cls-51" d="M270.36,150.54,150,105.15l.27-.7,120.09,45.29Z" transform="translate(0)"/><path id="Path_307" data-name="Path 307" class="cls-52" d="M270.36,151.34,149.74,105.85l.26-.7,120.36,45.39Z" transform="translate(0)"/><path id="Path_308" data-name="Path 308" class="cls-53" d="M270.36,152.14,149.48,106.55l.26-.7,120.62,45.49Z" transform="translate(0)"/><path id="Path_309" data-name="Path 309" class="cls-54" d="M270.36,152.94,149.21,107.25l.27-.7,120.88,45.59Z" transform="translate(0)"/><path id="Path_310" data-name="Path 310" class="cls-55" d="M270.36,153.74,149,108l.26-.7,121.15,45.69Z" transform="translate(0)"/><path id="Path_311" data-name="Path 311" class="cls-56" d="M270.36,154.54,148.69,108.65l.26-.7,121.41,45.79Z" transform="translate(0)"/><path id="Path_312" data-name="Path 312" class="cls-57" d="M270.36,155.34l-121.94-46,.27-.7,121.67,45.89Z" transform="translate(0)"/><path id="Path_313" data-name="Path 313" class="cls-58" d="M270.36,156.14l-122.2-46.09.26-.7,121.94,46Z" transform="translate(0)"/><path id="Path_314" data-name="Path 314" class="cls-59" d="M270.36,156.94,147.89,110.75l.27-.7,122.2,46.09Z" transform="translate(0)"/><path id="Path_315" data-name="Path 315" class="cls-60" d="M270.36,157.74,147.63,111.45l.26-.7,122.47,46.19Z" transform="translate(0)"/><path id="Path_316" data-name="Path 316" class="cls-61" d="M270.36,158.54l-123-46.39.26-.7,122.73,46.29Z" transform="translate(0)"/><path id="Path_317" data-name="Path 317" class="cls-62" d="M270.36,159.34,147.1,112.85l.27-.7,123,46.39Z" transform="translate(0)"/><path id="Path_318" data-name="Path 318" class="cls-63" d="M270.36,160.14,146.84,113.55l.26-.7,123.26,46.49Z" transform="translate(0)"/><path id="Path_319" data-name="Path 319" class="cls-64" d="M270.36,160.94,146.57,114.25l.27-.7,123.52,46.59Z" transform="translate(0)"/><path id="Path_320" data-name="Path 320" class="cls-65" d="M270.36,161.74,146.31,115l.26-.7,123.79,46.69Z" transform="translate(0)"/><path id="Path_321" data-name="Path 321" class="cls-66" d="M270.36,162.53,146.23,115.72v-.55l.08-.22,124.05,46.79Z" transform="translate(0)"/><path id="Path_322" data-name="Path 322" class="cls-67" d="M270.36,163.33,146.23,116.52v-.8l124.13,46.81Z" transform="translate(0)"/><path id="Path_323" data-name="Path 323" class="cls-68" d="M270.36,164.13,146.23,117.32v-.8l124.13,46.81Z" transform="translate(0)"/><path id="Path_324" data-name="Path 324" class="cls-69" d="M270.36,164.93,146.23,118.12v-.8l124.13,46.81Z" transform="translate(0)"/><path id="Path_325" data-name="Path 325" class="cls-70" d="M270.36,165.73,146.23,118.92v-.8l124.13,46.81Z" transform="translate(0)"/><path id="Path_326" data-name="Path 326" class="cls-71" d="M270.36,166.53,146.23,119.72v-.8l124.13,46.81Z" transform="translate(0)"/><path id="Path_327" data-name="Path 327" class="cls-72" d="M270.36,167.33,146.23,120.52v-.8l124.13,46.81Z" transform="translate(0)"/><path id="Path_328" data-name="Path 328" class="cls-73" d="M270.36,168.13,146.23,121.31v-.79l124.13,46.81Z" transform="translate(0)"/><path id="Path_329" data-name="Path 329" class="cls-74" d="M270.36,168.93,146.23,122.11v-.8l124.13,46.82Z" transform="translate(0)"/><path id="Path_330" data-name="Path 330" class="cls-75" d="M270.36,169.73,146.23,122.91v-.8l124.13,46.82Z" transform="translate(0)"/><path id="Path_331" data-name="Path 331" class="cls-76" d="M270.36,170.53,146.23,123.71v-.8l124.13,46.82Z" transform="translate(0)"/><path id="Path_332" data-name="Path 332" class="cls-77" d="M270.36,171.33,146.23,124.51v-.8l124.13,46.82Z" transform="translate(0)"/><path id="Path_333" data-name="Path 333" class="cls-78" d="M270.36,172.13,146.23,125.31v-.8l124.13,46.82Z" transform="translate(0)"/><path id="Path_334" data-name="Path 334" class="cls-79" d="M270.36,172.93,146.23,126.11v-.8l124.13,46.82Z" transform="translate(0)"/><path id="Path_335" data-name="Path 335" class="cls-80" d="M270.36,173.73,146.23,126.91v-.8l124.13,46.82Z" transform="translate(0)"/><path id="Path_336" data-name="Path 336" class="cls-81" d="M270.36,174.53,146.23,127.71v-.8l124.13,46.82Z" transform="translate(0)"/><path id="Path_337" data-name="Path 337" class="cls-82" d="M270.36,175.32,146.23,128.51v-.8l124.13,46.82Z" transform="translate(0)"/><path id="Path_338" data-name="Path 338" class="cls-83" d="M270.36,176.13,146.23,129.31v-.8l124.13,46.81Z" transform="translate(0)"/><path id="Path_339" data-name="Path 339" class="cls-84" d="M270.36,176.92,146.23,130.11v-.8l124.13,46.82Z" transform="translate(0)"/><path id="Path_340" data-name="Path 340" class="cls-85" d="M270.36,177.72,146.23,130.91v-.8l124.13,46.81Z" transform="translate(0)"/><path id="Path_341" data-name="Path 341" class="cls-86" d="M270.36,178.52,146.23,131.71v-.8l124.13,46.81Z" transform="translate(0)"/><path id="Path_342" data-name="Path 342" class="cls-87" d="M270.36,179.32,146.23,132.51v-.8l124.13,46.81Z" transform="translate(0)"/><path id="Path_343" data-name="Path 343" class="cls-88" d="M270.36,180.12,146.23,133.31v-.8l124.13,46.81Z" transform="translate(0)"/><path id="Path_344" data-name="Path 344" class="cls-89" d="M270.36,180.92,146.23,134.11v-.8l124.13,46.81Z" transform="translate(0)"/><path id="Path_345" data-name="Path 345" class="cls-90" d="M270.36,181.72,146.23,134.91v-.8l124.13,46.81Z" transform="translate(0)"/><path id="Path_346" data-name="Path 346" class="cls-91" d="M270.36,182.52,146.23,135.7v-.79l124.13,46.81Z" transform="translate(0)"/><path id="Path_347" data-name="Path 347" class="cls-92" d="M270.36,183.32,146.23,136.5v-.8l124.13,46.82Z" transform="translate(0)"/><path id="Path_348" data-name="Path 348" class="cls-93" d="M270.36,184.12,146.23,137.3v-.8l124.13,46.82Z" transform="translate(0)"/><path id="Path_349" data-name="Path 349" class="cls-94" d="M270.36,184.92,146.23,138.1v-.8l124.13,46.82Z" transform="translate(0)"/><path id="Path_350" data-name="Path 350" class="cls-95" d="M270.36,185.72,146.23,138.9v-.8l124.13,46.82Z" transform="translate(0)"/><path id="Path_351" data-name="Path 351" class="cls-96" d="M270.36,186.52,146.23,139.7v-.8l124.13,46.82Z" transform="translate(0)"/><path id="Path_352" data-name="Path 352" class="cls-97" d="M270.36,187.32,146.23,140.5v-.8l124.13,46.82Z" transform="translate(0)"/><path id="Path_353" data-name="Path 353" class="cls-98" d="M270.36,188.12,146.23,141.3v-.8l124.13,46.82Z" transform="translate(0)"/><path id="Path_354" data-name="Path 354" class="cls-99" d="M270.36,188.92,146.23,142.1v-.8l124.13,46.82Z" transform="translate(0)"/><path id="Path_355" data-name="Path 355" class="cls-100" d="M270.36,189.72,146.23,142.9v-.8l124.13,46.82Z" transform="translate(0)"/><path id="Path_356" data-name="Path 356" class="cls-101" d="M270.36,190.51,146.23,143.7v-.8l124.13,46.82Z" transform="translate(0)"/><path id="Path_357" data-name="Path 357" class="cls-102" d="M270.36,191.31,146.23,144.5v-.8l124.13,46.81Z" transform="translate(0)"/><path id="Path_358" data-name="Path 358" class="cls-103" d="M270.36,192.11,146.23,145.3v-.8l124.13,46.81Z" transform="translate(0)"/><path id="Path_359" data-name="Path 359" class="cls-104" d="M270.36,192.91,146.23,146.1v-.8l124.13,46.81Z" transform="translate(0)"/><path id="Path_360" data-name="Path 360" class="cls-105" d="M270.36,193.71,146.23,146.9v-.8l124.13,46.81Z" transform="translate(0)"/><path id="Path_361" data-name="Path 361" class="cls-106" d="M270.36,194.51,146.23,147.7v-.8l124.13,46.81Z" transform="translate(0)"/><path id="Path_362" data-name="Path 362" class="cls-107" d="M270.36,195.06l-.08.22-124-46.78v-.8l124.13,46.81Z" transform="translate(0)"/><path id="Path_363" data-name="Path 363" class="cls-108" d="M270.28,195.28l-.26.7L146.23,149.3v-.8Z" transform="translate(0)"/><path id="Path_364" data-name="Path 364" class="cls-109" d="M270,196l-.27.7L146.23,150.09v-.79Z" transform="translate(0)"/><path id="Path_365" data-name="Path 365" class="cls-110" d="M269.75,196.68l-.26.7L146.23,150.89v-.8Z" transform="translate(0)"/><path id="Path_366" data-name="Path 366" class="cls-111" d="M269.49,197.38l-.26.7-123-46.39v-.8Z" transform="translate(0)"/><path id="Path_367" data-name="Path 367" class="cls-112" d="M269.23,198.08l-.27.7L146.23,152.49v-.8Z" transform="translate(0)"/><path id="Path_368" data-name="Path 368" class="cls-113" d="M269,198.78l-.26.7L146.23,153.29v-.8Z" transform="translate(0)"/><path id="Path_369" data-name="Path 369" class="cls-114" d="M268.7,199.48l-.27.7-122.2-46.09v-.8Z" transform="translate(0)"/><path id="Path_370" data-name="Path 370" class="cls-115" d="M268.43,200.18l-.26.7-121.94-46v-.8Z" transform="translate(0)"/><path id="Path_371" data-name="Path 371" class="cls-116" d="M268.17,200.88l-.27.7L146.23,155.69v-.8Z" transform="translate(0)"/><path id="Path_372" data-name="Path 372" class="cls-117" d="M267.9,201.58l-.26.7L146.23,156.49v-.8Z" transform="translate(0)"/><path id="Path_373" data-name="Path 373" class="cls-118" d="M267.64,202.28l-.26.7L146.23,157.29v-.8Z" transform="translate(0)"/><path id="Path_374" data-name="Path 374" class="cls-119" d="M267.38,203l-.27.7L146.23,158.09v-.8Z" transform="translate(0)"/><path id="Path_375" data-name="Path 375" class="cls-120" d="M267.11,203.68l-.26.7L146.23,158.89v-.8Z" transform="translate(0)"/><path id="Path_376" data-name="Path 376" class="cls-121" d="M266.85,204.38l-.26.7L146.23,159.69v-.8Z" transform="translate(0)"/><path id="Path_377" data-name="Path 377" class="cls-122" d="M266.59,205.08l-.27.7L146.23,160.49v-.8Z" transform="translate(0)"/><path id="Path_378" data-name="Path 378" class="cls-123" d="M266.32,205.78l-.26.7L146.23,161.29v-.8Z" transform="translate(0)"/><path id="Path_379" data-name="Path 379" class="cls-124" d="M266.06,206.48l-.27.7L146.23,162.09v-.8Z" transform="translate(0)"/><path id="Path_380" data-name="Path 380" class="cls-125" d="M265.79,207.18l-.26.7-119.3-45v-.8Z" transform="translate(0)"/><path id="Path_381" data-name="Path 381" class="cls-126" d="M265.53,207.88l-.26.7-119-44.89v-.8Z" transform="translate(0)"/><path id="Path_382" data-name="Path 382" class="cls-127" d="M265.27,208.58l-.27.7L146.23,164.49v-.8Z" transform="translate(0)"/><path id="Path_383" data-name="Path 383" class="cls-128" d="M265,209.28l-.26.7-118.51-44.7v-.79Z" transform="translate(0)"/><path id="Path_384" data-name="Path 384" class="cls-129" d="M264.74,210l-.27.7-118.24-44.6v-.8Z" transform="translate(0)"/><path id="Path_385" data-name="Path 385" class="cls-130" d="M264.47,210.68l-.26.7-118-44.5v-.8Z" transform="translate(0)"/><path id="Path_386" data-name="Path 386" class="cls-131" d="M264.21,211.38l-.26.7-117.72-44.4v-.8Z" transform="translate(0)"/><path id="Path_387" data-name="Path 387" class="cls-132" d="M264,212.08l-.27.7-117.45-44.3v-.8Z" transform="translate(0)"/><path id="Path_388" data-name="Path 388" class="cls-133" d="M263.68,212.78l-.26.7-117.19-44.2v-.8Z" transform="translate(0)"/><path id="Path_389" data-name="Path 389" class="cls-134" d="M263.42,213.48l-.27.7-116.92-44.1v-.8Z" transform="translate(0)"/><path id="Path_390" data-name="Path 390" class="cls-135" d="M263.15,214.18l-.26.7-116.66-44v-.8Z" transform="translate(0)"/><path id="Path_391" data-name="Path 391" class="cls-136" d="M262.89,214.88l-.26.7-116.4-43.9v-.8Z" transform="translate(0)"/><path id="Path_392" data-name="Path 392" class="cls-137" d="M262.63,215.58l-.27.7-116.13-43.8v-.8Z" transform="translate(0)"/><path id="Path_393" data-name="Path 393" class="cls-138" d="M262.36,216.28l-.26.7-115.87-43.7v-.8Z" transform="translate(0)"/><path id="Path_394" data-name="Path 394" class="cls-139" d="M262.1,217l-.08.2h-1.49l-114.3-43.1v-.8Z" transform="translate(0)"/><path id="Path_395" data-name="Path 395" class="cls-140" d="M258.41,217.18l-112.18-42.3v-.8l114.3,43.1Z" transform="translate(0)"/><path id="Path_396" data-name="Path 396" class="cls-141" d="M256.29,217.18l-110.06-41.5v-.8l112.18,42.3Z" transform="translate(0)"/><path id="Path_397" data-name="Path 397" class="cls-142" d="M254.17,217.18l-107.94-40.7v-.8l110.06,41.5Z" transform="translate(0)"/><path id="Path_398" data-name="Path 398" class="cls-143" d="M252.05,217.18l-105.82-39.9v-.8l107.94,40.7Z" transform="translate(0)"/><path id="Path_399" data-name="Path 399" class="cls-144" d="M249.93,217.18l-103.7-39.11v-.79l105.82,39.9Z" transform="translate(0)"/><path id="Path_400" data-name="Path 400" class="cls-145" d="M247.81,217.18,146.23,178.87v-.8l103.7,39.11Z" transform="translate(0)"/><path id="Path_401" data-name="Path 401" class="cls-146" d="M245.69,217.18l-99.46-37.51v-.8l101.58,38.31Z" transform="translate(0)"/><path id="Path_402" data-name="Path 402" class="cls-147" d="M243.57,217.18l-97.34-36.71v-.8l99.46,37.51Z" transform="translate(0)"/><path id="Path_403" data-name="Path 403" class="cls-148" d="M241.45,217.18l-95.22-35.91v-.8l97.34,36.71Z" transform="translate(0)"/><path id="Path_404" data-name="Path 404" class="cls-149" d="M239.33,217.18l-93.1-35.11v-.8l95.22,35.91Z" transform="translate(0)"/><path id="Path_405" data-name="Path 405" class="cls-150" d="M237.21,217.18l-91-34.31v-.8l93.1,35.11Z" transform="translate(0)"/><path id="Path_406" data-name="Path 406" class="cls-151" d="M235.09,217.18l-88.86-33.51v-.8l91,34.31Z" transform="translate(0)"/><path id="Path_407" data-name="Path 407" class="cls-152" d="M233,217.18l-86.74-32.71v-.8l88.86,33.51Z" transform="translate(0)"/><path id="Path_408" data-name="Path 408" class="cls-153" d="M230.85,217.18l-84.62-31.91v-.8L233,217.18Z" transform="translate(0)"/><path id="Path_409" data-name="Path 409" class="cls-154" d="M228.73,217.18l-82.5-31.11v-.8l84.62,31.91Z" transform="translate(0)"/><path id="Path_410" data-name="Path 410" class="cls-155" d="M226.61,217.18l-80.38-30.31v-.8l82.5,31.11Z" transform="translate(0)"/><path id="Path_411" data-name="Path 411" class="cls-156" d="M224.49,217.18l-78.26-29.51v-.8l80.38,30.31Z" transform="translate(0)"/><path id="Path_412" data-name="Path 412" class="cls-157" d="M222.37,217.18l-76.14-28.71v-.8l78.26,29.51Z" transform="translate(0)"/><path id="Path_413" data-name="Path 413" class="cls-158" d="M220.25,217.18l-74-27.91v-.8l76.14,28.71Z" transform="translate(0)"/><path id="Path_414" data-name="Path 414" class="cls-159" d="M218.13,217.18l-71.9-27.11v-.8l74,27.91Z" transform="translate(0)"/><path id="Path_415" data-name="Path 415" class="cls-160" d="M216,217.18l-69.78-26.31v-.8l71.9,27.11Z" transform="translate(0)"/><path id="Path_416" data-name="Path 416" class="cls-161" d="M213.89,217.18l-67.66-25.52v-.79L216,217.18Z" transform="translate(0)"/><path id="Path_417" data-name="Path 417" class="cls-162" d="M211.77,217.18l-65.54-24.71v-.81l67.66,25.52Z" transform="translate(0)"/><path id="Path_418" data-name="Path 418" class="cls-163" d="M209.65,217.18l-63.42-23.92v-.79l65.54,24.71Z" transform="translate(0)"/><path id="Path_419" data-name="Path 419" class="cls-164" d="M207.53,217.18l-61.3-23.12v-.8l63.42,23.92Z" transform="translate(0)"/><path id="Path_420" data-name="Path 420" class="cls-165" d="M205.41,217.18l-59.18-22.32v-.8l61.3,23.12Z" transform="translate(0)"/><path id="Path_421" data-name="Path 421" class="cls-166" d="M203.29,217.18l-57.06-21.52v-.8l59.18,22.32Z" transform="translate(0)"/><path id="Path_422" data-name="Path 422" class="cls-167" d="M201.17,217.18l-54.94-20.72v-.8l57.06,21.52Z" transform="translate(0)"/><path id="Path_423" data-name="Path 423" class="cls-168" d="M199.05,217.18l-52.82-19.92v-.8l54.94,20.72Z" transform="translate(0)"/><path id="Path_424" data-name="Path 424" class="cls-169" d="M196.93,217.18l-50.7-19.12v-.8l52.82,19.92Z" transform="translate(0)"/><rect id="Rectangle_110" data-name="Rectangle 110" class="cls-169" x="171.59" y="180.52" height="54.19"/><rect id="Rectangle_111" data-name="Rectangle 111" class="cls-170" x="171.59" y="180.52" height="54.19"/><rect id="Rectangle_112" data-name="Rectangle 112" class="cls-171" x="171.59" y="180.52" height="54.19"/><rect id="Rectangle_113" data-name="Rectangle 113" class="cls-172" x="171.59" y="180.52" height="54.19"/><rect id="Rectangle_114" data-name="Rectangle 114" class="cls-173" x="171.59" y="180.52" height="54.19"/><rect id="Rectangle_115" data-name="Rectangle 115" class="cls-174" x="171.59" y="180.52" height="54.19"/><path id="Path_425" data-name="Path 425" class="cls-174" d="M146.23,198.06l50.7,19.12h-50.7Z" transform="translate(0)"/></g></g></g><g id="Layer_1-2" data-name="Layer 1"><g id="Layer_69" data-name="Layer 69"><g id="Layer_72" data-name="Layer 72"><ellipse id="Ellipse_44" data-name="Ellipse 44" class="cls-175" cx="133.05" cy="82.84" rx="0.67" ry="0.69"/><ellipse id="Ellipse_45" data-name="Ellipse 45" class="cls-175" cx="127.92" cy="97.8" rx="1.94" ry="1.9" transform="translate(-33.02 92.75) rotate(-35.6)"/><ellipse id="Ellipse_46" data-name="Ellipse 46" class="cls-175" cx="137.66" cy="114.96" rx="1.87" ry="1.91"/><circle id="Ellipse_47" data-name="Ellipse 47" class="cls-175" cx="259.31" cy="218.4" r="1.1"/><ellipse id="Ellipse_48" data-name="Ellipse 48" class="cls-176" cx="209.4" cy="157.33" rx="93.99" ry="90.46"/><ellipse id="Ellipse_49" data-name="Ellipse 49" class="cls-177" cx="210.51" cy="157.33" rx="118.65" ry="113.61"/><circle id="Ellipse_50" data-name="Ellipse 50" class="cls-175" cx="232.91" cy="244.94" r="2.45"/><ellipse id="Ellipse_51" data-name="Ellipse 51" class="cls-175" cx="154.46" cy="257.71" rx="2.32" ry="2.3"/><ellipse id="Ellipse_52" data-name="Ellipse 52" class="cls-175" cx="203.33" cy="247.79" rx="1.83" ry="1.81"/><ellipse id="Ellipse_53" data-name="Ellipse 53" class="cls-175" cx="172.19" cy="241.74" rx="1.53" ry="1.52"/><circle id="Ellipse_54" data-name="Ellipse 54" class="cls-175" cx="184.85" cy="70.1" r="2.45"/><ellipse id="Ellipse_55" data-name="Ellipse 55" class="cls-175" cx="191.07" cy="163.97" rx="1.35" ry="1.33"/><ellipse id="Ellipse_56" data-name="Ellipse 56" class="cls-175" cx="262.41" cy="83.53" rx="1.35" ry="1.33"/><circle id="Ellipse_57" data-name="Ellipse 57" class="cls-175" cx="245.07" cy="49.56" r="2.45"/><ellipse id="Ellipse_58" data-name="Ellipse 58" class="cls-175" cx="279.32" cy="95.89" rx="1.53" ry="1.52"/><ellipse id="Ellipse_59" data-name="Ellipse 59" class="cls-175" cx="291.67" cy="200.26" rx="1.22" ry="1.35"/><ellipse id="Ellipse_60" data-name="Ellipse 60" class="cls-175" cx="320.4" cy="199.43" rx="2.32" ry="2.3"/><ellipse id="Ellipse_61" data-name="Ellipse 61" class="cls-175" cx="292.64" cy="75.24" rx="1.35" ry="1.33"/><ellipse id="Ellipse_62" data-name="Ellipse 62" class="cls-175" cx="121.93" cy="223.11" rx="1.53" ry="1.52"/><circle id="Ellipse_63" data-name="Ellipse 63" class="cls-175" cx="110.96" cy="178.33" r="0.76"/><circle id="Ellipse_64" data-name="Ellipse 64" class="cls-175" cx="256.3" cy="99.33" r="0.76"/><circle id="Ellipse_65" data-name="Ellipse 65" class="cls-175" cx="124.96" cy="142.46" r="0.76"/><circle id="Ellipse_66" data-name="Ellipse 66" class="cls-175" cx="139.46" cy="93.67" r="0.76"/><circle id="Ellipse_67" data-name="Ellipse 67" class="cls-175" cx="166.79" cy="52.02" r="1.3"/><circle id="Ellipse_68" data-name="Ellipse 68" class="cls-175" cx="295.21" cy="236.39" r="1.09"/><circle id="Ellipse_69" data-name="Ellipse 69" class="cls-175" cx="292.68" cy="219.51" r="0.55"/><circle id="Ellipse_70" data-name="Ellipse 70" class="cls-175" cx="170.66" cy="222.47" r="0.76"/><circle id="Ellipse_71" data-name="Ellipse 71" class="cls-175" cx="203.3" cy="84.41" r="0.76"/><circle id="Ellipse_72" data-name="Ellipse 72" class="cls-175" cx="209.4" cy="55.34" r="0.76"/><path id="Path_426" data-name="Path 426" class="cls-175" d="M178.15,200.3l12.32-2.71,16.22-78.51-12.54,2.32Q186.14,160.85,178.15,200.3Z" transform="translate(0)"/><path id="Path_427" data-name="Path 427" class="cls-175" d="M180.72,124.89q-1.29,6.24-2.59,12.51l44.12-10.9q1.32-6.6,2.62-13.19Z" transform="translate(0)"/><path id="Path_428" data-name="Path 428" class="cls-178" d="M204.22,130.91l3.17,3.89,18-4.23-3-4Z" transform="translate(0)"/><path id="Path_429" data-name="Path 429" class="cls-178" d="M178.15,137.4l4.15,3.84,8.25-2.16c.34-1.68.68-3.36,1-5.06Z" transform="translate(0)"/><path id="Path_430" data-name="Path 430" class="cls-178" d="M193.49,201.74,181.6,204.6l-3.45-4.3,12.32-2.72Z" transform="translate(0)"/><path id="Path_431" data-name="Path 431" class="cls-179" d="M190.39,197.64l3.06,4.1q6.95-33.48,13.94-66.94l-3.17-3.89Q197.32,164.3,190.39,197.64Z" transform="translate(0)"/><path id="Path_432" data-name="Path 432" class="cls-179" d="M222.39,126.5l3,4q1.41-6.73,2.8-13.47L225,113.32Z" transform="translate(0)"/><path id="Path_433" data-name="Path 433" class="cls-179" d="M244.39,181.87l1.66,2.06,1.62,2q3.06-16.59,6.1-33.22L250.55,149Q247.4,165.44,244.39,181.87Z" transform="translate(0)"/><path id="Path_434" data-name="Path 434" class="cls-178" d="M247.62,186l-13.39,3.21L230.46,185l13.93-3.07Z" transform="translate(0)"/><path id="Path_435" data-name="Path 435" class="cls-178" d="M271.39,180.15,258,183.36l-3.77-4.2,13.87-3.08C269.15,177.44,270.24,178.8,271.39,180.15Z" transform="translate(0)"/><path id="Path_436" data-name="Path 436" class="cls-175" d="M262.33,243.56a3.58,3.58,0,0,0,.66-1.21c.1-.25.21-.49.32-.74.17-.42.27-.68.45-.73a.15.15,0,0,1,.18,0c.12.08.11.32.09.71v.75a4.47,4.47,0,0,0,0,1.63c0,.07.09.18.61.47,1,.56,1.73.64,1.73,1a.43.43,0,0,1,0,.16c-.17.3-.71.18-1.87.15-.55,0-.74,0-.92.17s-.15.15-.46.76l-.36.74c-.47,1-.62,1.5-.87,1.54h-.11c-.15-.08-.09-.44,0-1.28s.07-.77.11-1,.07-.62.09-.93a.86.86,0,0,0,0-.32c-.09-.22-.31-.27-.57-.34a8.26,8.26,0,0,1-.77-.31c-1-.34-1.14-.45-1.15-.65a.48.48,0,0,1,.09-.3c.14-.18.37-.15.74-.13h.76C261.73,243.75,262.15,243.75,262.33,243.56Z" transform="translate(0)"/><path id="Path_437" data-name="Path 437" class="cls-175" d="M94,129.67a3.4,3.4,0,0,0-.38-1.32l-.29-.75c-.17-.43-.28-.68-.19-.84a.21.21,0,0,1,.15-.11c.14,0,.3.15.56.44.56.63.43.47.5.56.6.73.91,1.1,1.13,1.18a1.41,1.41,0,0,0,.76-.09c1.12-.31,1.69-.76,2-.48a.37.37,0,0,1,.08.15c.09.33-.38.62-1.23,1.41-.4.37-.53.52-.54.77a2.31,2.31,0,0,0,.21.86c.14.46.26.78.26.78.39,1.08.61,1.51.45,1.72a.1.1,0,0,1-.08.06c-.16,0-.38-.25-.9-.92s-.48-.61-.6-.78a7.72,7.72,0,0,0-.58-.73.73.73,0,0,0-.24-.22c-.22-.1-.4,0-.64.15a5.25,5.25,0,0,1-.77.33c-.92.42-1.13.47-1.28.34a.53.53,0,0,1-.14-.28c0-.23.16-.36.43-.61s.36-.37.54-.55C93.67,130.23,93.93,130,94,129.67Z" transform="translate(0)"/><path id="Path_438" data-name="Path 438" class="cls-175" d="M236.86,82.14a3.44,3.44,0,0,0,.66-1.2c.1-.25.21-.5.32-.74.18-.42.27-.68.45-.74a.19.19,0,0,1,.18,0c.12.09.11.32.09.72v.74a4.52,4.52,0,0,0,0,1.64c0,.06.09.18.61.47,1,.56,1.74.64,1.73,1a.43.43,0,0,1,0,.16c-.16.3-.7.18-1.87.14-.54,0-.74,0-.92.17a2.86,2.86,0,0,0-.46.77l-.36.74c-.47,1-.62,1.5-.87,1.54a.2.2,0,0,1-.11,0c-.14-.08-.09-.44,0-1.29s.07-.77.11-1,.07-.56.1-.93a.86.86,0,0,0,0-.32c-.09-.22-.31-.26-.57-.34s-.51-.21-.77-.3c-1-.34-1.14-.46-1.15-.65a.48.48,0,0,1,.09-.3c.14-.18.37-.15.74-.14h.77A2.15,2.15,0,0,0,236.86,82.14Z" transform="translate(0)"/><path id="Path_439" data-name="Path 439" class="cls-175" d="M130.74,182.37q-1.44,8.92-2.89,17.76l-11.7-2.3,3-12.9c1.94-.34,4-.75,6.06-1.21S129,182.84,130.74,182.37Z" transform="translate(0)"/><path id="Path_440" data-name="Path 440" class="cls-179" d="M160.67,145c-14.75-4.77-18.5-7.46-18.24-9.07.31-2,7-3.69,12-1.72a16.47,16.47,0,0,1,5,3.4,24.68,24.68,0,0,1,3.5,4.33,10.29,10.29,0,0,1,1.67,3,7.9,7.9,0,0,1,.16,3.71l-2.82,15-3.55-3.89Q159.53,152.31,160.67,145Z" transform="translate(0)"/><path id="Path_441" data-name="Path 441" class="cls-178" d="M131.9,215.61c-2.18,0-7,0-10.86-3.44a13.18,13.18,0,0,1-3.44-5.1,36.48,36.48,0,0,0,21.82-10,35.21,35.21,0,0,0,9.87-18.44c.32-1.84.63-3.68,1-5.52a17.42,17.42,0,0,1,5.67,6c4.92,8.81.2,20.33-5.14,26.74C149.7,207.06,142.39,215.61,131.9,215.61Z" transform="translate(0)"/><path id="Path_442" data-name="Path 442" class="cls-175" d="M87.26,149V149L83,150q-13.23,40-26.45,80l12.56-2.6,3.81-11.72,11-2.28c-.18,3.57-.37,7.14-.55,10.71l12-2.51q2-37.68,4-75.37ZM77.15,202.78q4.38-13.5,8.78-27-.66,12.78-1.31,25.58Z" transform="translate(0)"/><path id="Path_443" data-name="Path 443" class="cls-178" d="M72.15,231.39l-12.1,2.91L56.53,230l12.62-2.74Z" transform="translate(0)"/><path id="Path_444" data-name="Path 444" class="cls-178" d="M98.39,225.71,86.94,228.5l-3.55-4.4,12-2.51Z" transform="translate(0)"/><path id="Path_445" data-name="Path 445" class="cls-179" d="M75.79,219.93l-3.64,11.46-3-4.09q1.89-5.82,3.79-11.6Z" transform="translate(0)"/><path id="Path_446" data-name="Path 446" class="cls-179" d="M102.94,150.18q-2.25,37.77-4.55,75.53l-3-4.12q2-37.71,4.07-75.41Z" transform="translate(0)"/><path id="Path_447" data-name="Path 447" class="cls-178" d="M83.65,218.41l-7.86,1.52-2.89-4.26,11-2.28Z" transform="translate(0)"/><path id="Path_448" data-name="Path 448" class="cls-179" d="M84.94,192.77,82,201.7l-4.88,1.08,8.77-26.87Z" transform="translate(0)"/><path id="Path_449" data-name="Path 449" class="cls-178" d="M261.15,152.58a10,10,0,0,0-2.37-.58,10.12,10.12,0,0,0-5.15.79L250.49,149l11.9-1.84Z" transform="translate(0)"/><path id="Path_450" data-name="Path 450" class="cls-179" d="M135.44,173.72c-1.28-.95-1.34-2.83-1.06-10.75a35.9,35.9,0,0,1,.52-5.37c.74-4.23,1.25-7.12,3.37-9.22,3.15-3.14,8.07-2.72,9.44-2.55,1.59.6,3.35,1.45,3.3,2.38-.06,1.38-4.08,1.11-7,3.1-7.7,5.15-3.92,22.41-7.24,22.93a1.89,1.89,0,0,1-1.33-.52Z" transform="translate(0)"/><path id="Path_451" data-name="Path 451" class="cls-179" d="M131.39,199.83l-3.89.3c.22-1.09.43-2.19.65-3.28q1.32-7.26,2.63-14.48l3.12,4.81Q132.63,193.51,131.39,199.83Z" transform="translate(0)"/><path id="Path_452" data-name="Path 452" class="cls-175" d="M158.15,159.72l-11.6,1.65c.29-1.14.94-3.8,1.56-6.68a24.07,24.07,0,0,0,.49-3.39,7.57,7.57,0,0,0,0-1.78,4.6,4.6,0,0,0-2.92-3.28c-3-1-6.75,2.6-8.34,5.46a20.89,20.89,0,0,0-1.79,5.08c-.15.69-.1.63-.45,2.79-.74,4.62-.93,5-.68,5.76.44,1.37,1.66,2.06,4.1,3.42,3.1,1.75,4.26,1.27,7.69,2.52s4.41,2.07,4.77,2.4a9.89,9.89,0,0,1,2.74,4.28c.56,1.75.45,3.16.22,6a32.27,32.27,0,0,1-.69,4.8,29.46,29.46,0,0,1-5.09,10.63c-1.14,1.54-10,13.56-21.68,13.13-1.66-.06-5.28-.19-7.85-2.82a10.47,10.47,0,0,1-2.62-5.51c-.82-4,.24-8.35,1.45-8.49.74-.08.89,1.27,2.08,1.63,2.94.89,6.71-6.14,8.45-5.4,1.45.61-.61,5.69,1.57,7.34,1.72,1.3,5.27-.16,7.32-1.92,2.72-2.34,3.28-5.68,3.84-9s.88-4.82.12-6.71c-1.31-3.27-4.71-4.85-7.31-6-4.08-1.88-5.61-1.15-7.86-3.31a10.51,10.51,0,0,1-2.75-4.82c-.32-1.26-.37-2.49.12-5.75.62-4,.91-6.06,1.84-8.46a30,30,0,0,1,5.62-9,36.65,36.65,0,0,1,7-6.34c.62-.41,1.24-.82,1.87-1.22a15.63,15.63,0,0,1,6.15-2.76c1.52-.31,5.64-1.15,9.47,1.18,5,3.07,5.55,9.15,5.6,9.83Z" transform="translate(0)"/><path id="Path_453" data-name="Path 453" class="cls-178" d="M161.92,163.61l-12,1.94-3.29-4.14,11.52-1.69Z" transform="translate(0)"/><path id="Path_454" data-name="Path 454" class="cls-179" d="M254.26,143.76c.48-4.1.37-6.24-.35-6.44-.52-.14-1.38.8-2.57,2.8q1.68-8.49,3.31-17a11,11,0,0,1,9.31-6.23,10.14,10.14,0,0,1,1.35,0,5.57,5.57,0,0,1,2.48.61c1.1.74,1.31,2.41.66,2.71s-1.11-.64-2.79-1a6.62,6.62,0,0,0-5.51,1.39,3.88,3.88,0,0,0-.39.42c-.59.68-1.18,1.76-2,4.4a42,42,0,0,0-1.45,5.61Q255.26,136.94,254.26,143.76Z" transform="translate(0)"/><path id="Path_455" data-name="Path 455" class="cls-179" d="M271.28,153.55c-12.68-6.94-15.3-9.9-14.82-11.24.61-1.7,6.54-1.72,10.91-.14a11,11,0,0,1,4.9,3c2.22,2.51,2.61,5.75,2.92,8.36a24.2,24.2,0,0,1,.16,3.71c-.27,7.1-3.5,20.78-4,22.92-1.1-1.35-2.19-2.71-3.29-4.07Z" transform="translate(0)"/><path id="Path_456" data-name="Path 456" class="cls-175" d="M252.61,138q-4.14,21.93-8.27,43.89l-13.88,3.28q5.58-27.27,11.2-54.53c-.26,5.13,2.72,9,5.94,9.36C250,140.3,252,138.5,252.61,138Z" transform="translate(0)"/><path id="Path_457" data-name="Path 457" class="cls-179" d="M279.32,113.1c-14.75-4.77-18.49-7.46-18.24-9.06.31-2,7-3.69,12-1.72a16.62,16.62,0,0,1,5,3.39,24.74,24.74,0,0,1,3.5,4.34,10.32,10.32,0,0,1,1.68,3,8.16,8.16,0,0,1,.15,3.71c-.42,2.6-1.9,11.13-4.09,22.73l-3.38-4.69Q277.62,124,279.32,113.1Z" transform="translate(0)"/><path id="Path_458" data-name="Path 458" class="cls-175" d="M275.92,134.83a9.33,9.33,0,0,1-4.42,4.9c-2.88,1.36-5.7.48-8.51-.37a24.47,24.47,0,0,1-9.85-5.89,6.14,6.14,0,0,0,4.62,1.66,9,9,0,0,0,6.49-3.47c.75-1,1.29-2.55,2-5.78.92-4.11.79-5.21.39-6.07a4.42,4.42,0,0,0-1.78-2c-2.65-1.49-6.53.7-8.27,2.73a9.22,9.22,0,0,0-1.72,2.87c0,.11-.22.74-.6,2-.09.31-.18.6-.26,1a10.51,10.51,0,0,0-.21,1.35c-.16,1.63-.76,5.42-.77,5.42s.53-4.13.56-4.13a3.08,3.08,0,0,1-.07.68c-.14,1.25-.24,1.68-.26,2a4.34,4.34,0,0,0,1.48,3,24.63,24.63,0,0,0,2.47,2.22l.1.08a7.52,7.52,0,0,0,2,.91c1.74.62,3,.6,5.55,1.52a15.59,15.59,0,0,1,4.63,2.27l.15.13a16.31,16.31,0,0,1,2.73,4.28c.58,1.54.46,3,.23,6a38,38,0,0,1-.68,4.75V157c-.6,2.32-10.7,3.11-12.24,0-.78-1.55.65-4.1-.18-7.18a1.92,1.92,0,0,0-.44-.89c-.86-.94-2.5-.68-4.63-.38-3.09.44-4.64.66-4.88.63-4.23-.5-7.39-7.92-8-13.5a22.06,22.06,0,0,1,.12-5.74c.61-4,.91-6.07,1.84-8.46a29.93,29.93,0,0,1,5.61-9,36.65,36.65,0,0,1,7-6.34l2-1.24a15.63,15.63,0,0,1,6.15-2.76c1.53-.31,5.64-1.14,9.47,1.19,5,3.06,5.56,9.14,5.6,9.82Q277.63,124,275.92,134.83Z" transform="translate(0)"/><path id="Path_459" data-name="Path 459" class="cls-175" d="M272.23,155.5c-1.15,6.06-2.47,12.91-4.18,20.58l-13.9,3.16,5.94-28a2.6,2.6,0,0,0,0-1.41,3.13,3.13,0,0,0-1.37-1.65c-2-1.3-7.06-9.64-5.38-12.07,1.52-2.21,10.92,1.16,16.19,5.57a8.61,8.61,0,0,1,1.32,1.31C273.9,146.7,272.23,155.5,272.23,155.5Z" transform="translate(0)"/><path id="Path_460" data-name="Path 460" class="cls-178" d="M272.27,145.16l-4.34-4.86a8,8,0,0,0,7.93-5.66l3.46,4.76a10.5,10.5,0,0,1-7,5.79Z" transform="translate(0)"/><circle id="Ellipse_73" data-name="Ellipse 73" class="cls-175" cx="212.86" cy="265.65" r="1.1"/><line id="Line_47" data-name="Line 47" class="cls-180" x1="173.72" y1="241.74" x2="201.5" y2="247.79"/><line id="Line_48" data-name="Line 48" class="cls-180" x1="138.82" y1="94.1" x2="130.02" y2="97.68"/><line id="Line_49" data-name="Line 49" class="cls-180" x1="139.05" y1="93.05" x2="133.26" y2="83.2"/><line id="Line_50" data-name="Line 50" class="cls-180" x1="133.72" y1="82.15" x2="166.74" y2="53.16"/><line id="Line_51" data-name="Line 51" class="cls-180" x1="238.02" y1="84.55" x2="256.01" y2="99.05"/><line id="Line_52" data-name="Line 52" class="cls-180" x1="257.05" y1="99.15" x2="278.59" y2="96.41"/><line id="Line_53" data-name="Line 53" class="cls-180" x1="291.84" y1="76.57" x2="280.29" y2="95.12"/><line id="Line_54" data-name="Line 54" class="cls-180" x1="204.06" y1="84.42" x2="233.93" y2="82.78"/><line id="Line_55" data-name="Line 55" class="cls-180" x1="185.49" y1="71.3" x2="202.89" y2="83.78"/><line id="Line_56" data-name="Line 56" class="cls-180" x1="156.31" y1="256.33" x2="172.19" y2="243.26"/><line id="Line_57" data-name="Line 57" class="cls-180" x1="122.57" y1="224.48" x2="152.51" y2="256.46"/><line id="Line_58" data-name="Line 58" class="cls-180" x1="204.69" y1="247.79" x2="209.4" y2="234.19"/><line id="Line_59" data-name="Line 59" class="cls-180" x1="318.72" y1="198.91" x2="292.89" y2="200.26"/><line id="Line_60" data-name="Line 60" class="cls-180" x1="232.91" y1="245.98" x2="212.86" y2="265.03"/><line id="Line_61" data-name="Line 61" class="cls-180" x1="295.21" y1="236.39" x2="259.39" y2="218.4"/><line id="Line_62" data-name="Line 62" class="cls-180" x1="294.24" y1="235.9" x2="291.13" y2="199.43"/><circle id="Ellipse_74" data-name="Ellipse 74" class="cls-175" cx="209.4" cy="235.3" r="1.1"/><line id="Line_63" data-name="Line 63" class="cls-180" x1="124.54" y1="141.83" x2="95.22" y2="130.42"/><line id="Line_64" data-name="Line 64" class="cls-180" x1="136.16" y1="115.9" x2="124.95" y2="142.25"/><line id="Line_65" data-name="Line 65" class="cls-180" x1="128.17" y1="98.37" x2="137" y2="114.96"/><line id="Line_66" data-name="Line 66" class="cls-180" x1="171.07" y1="223.12" x2="203.33" y2="247.39"/><line id="Line_67" data-name="Line 67" class="cls-180" x1="232.88" y1="244.94" x2="209.4" y2="236.4"/><path id="Path_461" data-name="Path 461" class="cls-178" d="M335,147.74a28.79,28.79,0,0,1-9.64,15.18c-2.65,2.1-8.14,6.47-15.19,5.47a16.5,16.5,0,0,1-8.3-3.84,98.68,98.68,0,0,0,36.25-75.68,14.44,14.44,0,0,1,6.24,13.63Z" transform="translate(0)"/><path id="Path_462" data-name="Path 462" class="cls-175" d="M340.15,90.82h0c-1.59-3.19-5-4.48-6-4.85a15.36,15.36,0,0,0-9.08-.13c-11.16,2.66-17,13.66-18.15,15.78-.56,1.06-1,2-1.22,2.54q-4.68,24.16-9.31,48.34a12.77,12.77,0,0,0,.52,4.56,13.38,13.38,0,0,0,5.48,7.34c7.41,4.33,22.55-3.62,27.81-15.11a22.4,22.4,0,0,0,1.47-4.29q4.65-22.89,9.29-45.78l.66-3.24A10.48,10.48,0,0,0,340.15,90.82Zm-11.18,23-4.23,20.28a9.84,9.84,0,0,1-.67,1.91c-2.39,5.09-9.28,8.61-12.65,6.69a6.05,6.05,0,0,1-2.52-3.25,5.39,5.39,0,0,1-.24-2q2.13-10.71,4.25-21.41c.11-.26.3-.66.55-1.13.51-.93,3.18-5.8,8.26-7a7.09,7.09,0,0,1,4.13.06,4.91,4.91,0,0,1,2.75,2.15h0a4.42,4.42,0,0,1,.66,2.29,9.19,9.19,0,0,1-.25,1.39Z" transform="translate(0)"/><path id="Path_463" data-name="Path 463" class="cls-179" d="M311.39,142.11a3,3,0,0,1-1-.3c-1.87-1-1.77-4-1.76-4.13q2.16-10.83,4.3-21.67a14.3,14.3,0,0,1,4.8-6.32,9.94,9.94,0,0,1,5-2.07,8,8,0,0,1,3.84.62c.36.14,1.09.44,1.05.65s-2-.14-4.06.33a9.29,9.29,0,0,0-5,3.28c-.77.92-1.49,2.08-2.73,6.22-.71,2.36-1.31,4.75-1.78,7.16Q312.73,133.44,311.39,142.11Z" transform="translate(0)"/></g></g></g></g></svg>